<svg xmlns="http://www.w3.org/2000/svg" width="512" height="512"><path d="M469.333 106.667H362.667V85.333c0-23.531-19.135-42.667-42.667-42.667H192c-23.531 0-42.667 19.135-42.667 42.667v21.333H42.667C19.135 106.667 0 125.802 0 149.333v277.333c0 23.531 19.135 42.667 42.667 42.667h426.667c23.531 0 42.667-19.135 42.667-42.667V149.333c-.001-23.531-19.136-42.666-42.668-42.666zM170.667 85.333C170.667 73.573 180.24 64 192 64h128c11.76 0 21.333 9.573 21.333 21.333v21.333H170.667V85.333zm320 341.334c0 11.76-9.573 21.333-21.333 21.333H42.667c-11.76 0-21.333-9.573-21.333-21.333V271.4c6.301 3.674 13.527 5.934 21.333 5.934h170.667v32a10.66 10.66 0 0 0 10.667 10.667h64a10.66 10.66 0 0 0 10.667-10.667v-32h170.667c7.806 0 15.033-2.259 21.333-5.934v155.267zm-256-128V256h42.667v42.667h-42.667zm256-64c0 11.76-9.573 21.333-21.333 21.333H298.667v-10.667A10.66 10.66 0 0 0 288 234.666h-64a10.66 10.66 0 0 0-10.667 10.667V256H42.667c-11.76 0-21.333-9.573-21.333-21.333v-85.333c0-11.76 9.573-21.333 21.333-21.333h426.667c11.76 0 21.333 9.573 21.333 21.333v85.333z" fill="#FFF"/></svg>