<svg xmlns="http://www.w3.org/2000/svg" viewBox="0 0 486.475 486.475" width="512" height="512"><g fill="#FFF"><path d="M243.155 153.048c20.469 0 37.063-16.593 37.063-37.061 0-20.473-16.594-37.065-37.063-37.065s-37.062 16.592-37.062 37.065c0 20.468 16.593 37.061 37.062 37.061zm71.658 112.048c2.517-21.161 5.787-87.428-49.273-105.667-1.104-.369-9.793-3.519-13.153-4.337l-9.131 9.398-9.047-9.394c-.042.008-.064.008-.096.015-3.442.829-12.088 3.979-13.086 4.325-55.366 19.356-51.908 84.696-49.3 105.668h-33.723v24.761h11.826v116.786h22.99V289.857h23.787c-1.767 3.093-2.616 6.724-2.198 10.483l10.951 90.897c.976 8.811 8.441 15.342 17.127 15.342.629 0 1.266-.038 1.901-.099 9.467-1.062 16.297-9.578 15.246-19.042l-9.533-77.996 13.103-5.356 12.676 5.28-9.459 78.151c-1.032 9.472 5.813 17.979 15.274 19.003a16.3 16.3 0 0 0 1.881.113c8.688 0 16.164-6.539 17.132-15.363l10.866-90.962c.413-3.736-.431-7.366-2.194-10.453h24.113v116.781h22.984V289.857h11.995v-24.761h-33.659zm-109.591.003h-4.408c-.93-6.2-4.443-34.468 4.408-55.583v55.583zm38.069-27.26h-.165l-8.988-12.238 8.988-59.744h.165l8.893 59.744-8.893 12.238zm42.458 27.26h-4.658v-55.773c9.178 21.203 5.587 49.58 4.658 55.773z"/><circle cx="72.203" cy="135.089" r="35.507"/><path d="M153.926 232.614c-42.317 3.135-47.829-11.66-58.142-39.287-3.601-10.104-13.588-16.935-23.111-19.287 0 0-3.733-1.121-7.701-1.044-3.826.088-8.068.975-8.068.975l-.104.007c-11.953 2.909-24.667 12.628-24.701 27.23l-.076 78.357c-.021 17.021 11.632 26.101 27.304 26.123l21.896-.026s23.25-.75 21.125 24.125c-1.521 17.807-3.854 37.696-5.71 59.028-.824 9.479 6.188 17.846 15.682 18.675.511.046 1.014.063 1.517.063 8.841 0 16.37-6.755 17.156-15.732 8.143-93.188 4.502-98.888 1.995-104.761-2.715-5.115-8.068-12.206-35.808-14.141l.029-22.993c9.62 7.367 22.558 10.845 42.242 10.845 5.047 0 10.521-.224 16.513-.657 7.582-.563 13.28-7.188 12.726-14.774-.563-7.592-7.179-13.274-14.764-12.726z"/><path d="M82.752 312.683h-23.53c-36.375 0-32.687-32.896-32.687-32.896v-69.245c0-7.325-5.935-13.258-13.268-13.258C5.938 197.284 0 203.217 0 210.542v115.402c0 4.319 2.104 8.127 5.308 10.552v69.79h15.914v-67.064h47.762v67.064h15.912v-67.288c6.295-1.035 11.113-6.461 11.113-13.046.001-7.345-5.924-13.269-13.257-13.269z"/><circle cx="414.274" cy="135.089" r="35.507"/><path d="M384.13 329.787c-2.125-24.875 21.125-24.125 21.125-24.125l21.896.026c15.672-.022 27.326-9.102 27.304-26.123l-.076-78.357c-.034-14.602-12.748-24.321-24.701-27.23l-.104-.007s-4.242-.887-8.068-.975c-3.968-.077-7.701 1.044-7.701 1.044-9.523 2.352-19.511 9.183-23.111 19.287-10.313 27.627-15.824 42.422-58.142 39.287-7.586-.548-14.2 5.134-14.763 12.725-.555 7.587 5.144 14.212 12.726 14.774 5.992.434 11.466.657 16.513.657 19.685 0 32.623-3.478 42.242-10.845l.029 22.993c-27.738 1.935-33.093 9.025-35.807 14.141-2.508 5.873-6.148 11.572 1.994 104.761.787 8.978 8.315 15.732 17.156 15.732.504 0 1.006-.017 1.518-.063 9.492-.829 16.505-9.196 15.681-18.675-1.856-21.331-4.19-41.221-5.711-59.027z"/><path d="M473.209 197.285c-7.333 0-13.267 5.933-13.267 13.258v69.245s3.688 32.896-32.688 32.896h-23.529c-7.334 0-13.26 5.924-13.259 13.27 0 6.585 4.819 12.011 11.113 13.046v67.288h15.913v-67.064h47.761v67.064h15.914v-69.79c3.203-2.425 5.308-6.232 5.308-10.552V210.543c0-7.325-5.937-13.258-13.266-13.258z"/></g></svg>