<svg id="Layer_1" xmlns="http://www.w3.org/2000/svg" viewBox="0 0 875 470"><style>.st0{fill:#fff}</style><linearGradient id="SVGID_1_" gradientUnits="userSpaceOnUse" x1="-237" y1="-117" x2="-237" y2="-118"><stop offset="0" stop-color="#656565"/><stop offset=".618" stop-color="#1b1b1b"/><stop offset=".629" stop-color="#545454"/><stop offset=".983" stop-color="#3e3e3e"/></linearGradient><path class="st0" d="M103 415.7c-15.8 0-29.3-2.7-40.5-8.2-11.2-5.5-20.3-13-27.4-22.5-7.1-9.5-12.3-20.8-15.7-33.9-3.4-13-5.1-27.1-5.1-42.2 0-8.1.9-17.9 2.6-29.1 1.7-11.3 4.2-22.3 7.5-33l58.3-10.5c-4.9 14.2-8.5 26.5-10.8 36.8-2.3 10.4-3.5 19.8-3.5 28.4 0 23.3 2.8 40.3 8.6 51.1 5.7 10.8 15.2 16.2 28.4 16.2 6 0 11.4-1.1 16.1-3.3 4.7-2.2 8.5-6 11.5-11.3 3-5.4 5.3-12.3 6.8-20.9 1.5-8.6 2.3-19.4 2.3-32.5v-127h54.1v124.6c0 21.6-1.9 39.9-5.8 54.8-3.8 14.9-9.7 27-17.5 36.3-7.8 9.3-17.5 16-29.1 20.1-11.6 4.1-25.2 6.1-40.8 6.1zm2.1-176.9c-4.2 0-8.1-.8-11.7-2.4-3.6-1.6-6.8-3.8-9.4-6.5-2.7-2.7-4.8-5.8-6.5-9.4-1.6-3.6-2.4-7.5-2.4-11.7 0-4 .8-7.7 2.4-11.3 1.6-3.6 3.8-6.7 6.5-9.4s5.8-4.8 9.4-6.5c3.6-1.6 7.5-2.4 11.7-2.4s8.1.8 11.7 2.4c3.6 1.6 6.7 3.8 9.4 6.5s4.8 5.8 6.3 9.4c1.5 3.6 2.3 7.4 2.3 11.3 0 4.2-.8 8.1-2.3 11.7-1.5 3.6-3.6 6.8-6.3 9.4-2.7 2.7-5.8 4.8-9.4 6.5-3.7 1.6-7.6 2.4-11.7 2.4zm149.7-105.1h-4c-1.5 0-3-.1-4.4-.3l-19.5-1.4V94.7c10.7-1.9 21.6-3.3 32.6-4.2 11-.9 21.6-1.4 31.6-1.4 1.9 0 4.9.1 9.1.2 4.2.1 7.2.2 9.1.2V289h27.2v46.4h-81.7V133.7z"/><path class="st0" d="M326.3 289h109.9v-22.7c0-16.8-4-28.7-11.9-35.8-7.9-7.1-21.4-10.6-40.5-10.6-11.9 0-24.2.7-37 2.1l4.2-46.1c5.6-.7 11.2-1.2 16.8-1.6s12.1-.5 19.5-.5c19.3 0 35.6 2.2 48.9 6.6 13.3 4.4 24 10.5 32.3 18.3 8.3 7.8 14.2 16.9 17.8 27.2 3.6 10.4 5.4 21.5 5.4 33.3V289h30.4v46.4H326.3V289zm69.5 117.3c-4.2 0-8.1-.8-11.7-2.4-3.6-1.6-6.8-3.8-9.4-6.5-2.7-2.7-4.8-5.8-6.5-9.4-1.6-3.6-2.4-7.5-2.4-11.7 0-4.2.8-8.1 2.4-11.7 1.6-3.6 3.8-6.8 6.5-9.4 2.7-2.7 5.8-4.8 9.4-6.5 3.6-1.6 7.5-2.4 11.7-2.4 4.2 0 8.1.8 11.7 2.4 3.6 1.6 6.7 3.8 9.4 6.5s4.8 5.8 6.3 9.4c1.5 3.6 2.3 7.5 2.3 11.7 0 4.2-.8 8.1-2.3 11.7-1.5 3.6-3.6 6.7-6.3 9.4-2.7 2.7-5.8 4.8-9.4 6.5-3.6 1.6-7.5 2.4-11.7 2.4z"/><path class="st0" d="M515.5 289h44.3V89h54.1v200h30.4v46.4H515.5V289z"/><path class="st0" d="M633.1 289h44.3V89h54.4v246.4H633V289zm158.4-155.3h-4.4c-1.5 0-2.9-.1-4-.3l-19.9-1.4V94.7c10.7-1.9 21.6-3.3 32.6-4.2 11-.9 21.7-1.4 31.9-1.4 1.9 0 4.8.1 8.9.2 4.1.1 7 .2 8.9.2v246h-54.1V133.7z"/></svg>