<svg id="Capa_1" xmlns="http://www.w3.org/2000/svg" viewBox="0 0 512 512"><style>.st0{fill:#fff}</style><circle class="st0" cx="256" cy="60.8" r="45"/><path class="st0" d="M329.1 77.3c-7.6 33.4-37.4 58.5-73.1 58.5s-65.5-25.1-73.1-58.5c-26.9 6-47 29.9-47 58.5v60.1c0 16.6 13.5 30 30 30s30-13.5 30-30v-30H316v30c0 16.6 13.5 30 30 30s30-13.5 30-30v-60.1c.1-28.5-20-52.5-46.9-58.5zm159.6 305.4c-21.5-12.4-49.1-5.1-61.5 16.5-12.4 21.5-5.1 49.1 16.5 61.5 21.5 12.4 50.1 5.1 62.5-16.5 12.4-21.5 4.1-49-17.5-61.5z"/><path class="st0" d="M461.2 280.2l-52-30c-14.3-8.3-32.7-3.3-41 11-8.3 14.3-3.3 32.7 11 41l26 15-60.1 104-26-15c-14.3-8.3-32.7-3.3-41 11s-3.3 32.7 11 41l52 30c24.8 14.3 55.6 8.8 74.2-11.4-25.2-23.3-32-61.7-14.1-92.6s54.5-44.2 87.2-34c8.3-26.3-2.4-55.7-27.2-70zm-376.4 119c-12.4-21.5-40-28.9-61.5-16.5s-29.9 40-17.5 61.5 41 28.9 62.5 16.5c21.6-12.4 29-39.9 16.5-61.5z"/><path class="st0" d="M233.9 417.2c-8.3-14.3-26.7-19.3-41-11l-26 15-60.1-104 26-15c14.3-8.3 19.3-26.7 11-41s-26.7-19.3-41-11l-52 30c-24.8 14.3-35.4 43.7-27.2 70 32.7-10.2 69.4 3.1 87.2 34s11 69.3-14.1 92.6c18.6 20.3 49.4 25.8 74.2 11.4l52-30c14.3-8.3 19.3-26.7 11-41z"/></svg>