<svg xmlns="http://www.w3.org/2000/svg" viewBox="0 0 480 480" width="512" height="512"><path d="M208 176h-52.688l-45.656-45.656A8 8 0 0 0 104 128H8a8 8 0 0 0-8 8v168c.026 22.08 17.92 39.974 40 40h48a8 8 0 0 1 8 8v88c0 13.255 10.745 24 24 24h16c13.255 0 24-10.745 24-24V336c-.035-30.913-25.087-55.965-56-56h-8v-68.688l26.344 26.344A8 8 0 0 0 128 240h80c17.673 0 32-14.327 32-32s-14.327-32-32-32zm0 48h-76.688l-37.656-37.656A8 8 0 0 0 80 192v96a8 8 0 0 0 8 8h16c22.08.026 39.974 17.92 40 40v104a8 8 0 0 1-8 8h-16a8 8 0 0 1-8-8v-88c0-13.255-10.745-24-24-24H40c-13.255 0-24-10.745-24-24V144h84.688l45.656 45.656A8 8 0 0 0 152 192h56c8.837 0 16 7.163 16 16s-7.163 16-16 16zm264-96h-96a8 8 0 0 0-5.656 2.344L324.688 176H272c-17.673 0-32 14.327-32 32s14.327 32 32 32h80a8 8 0 0 0 5.656-2.344L384 211.312V280h-8c-30.913.035-55.965 25.087-56 56v104c0 13.255 10.745 24 24 24h16c13.255 0 24-10.745 24-24v-88a8 8 0 0 1 8-8h48c22.08-.026 39.974-17.92 40-40V136a8 8 0 0 0-8-8zm-8 176c0 13.255-10.745 24-24 24h-48c-13.255 0-24 10.745-24 24v88a8 8 0 0 1-8 8h-16a8 8 0 0 1-8-8V336c.026-22.08 17.92-39.974 40-40h16a8 8 0 0 0 8-8v-96a8 8 0 0 0-13.656-5.656L348.688 224H272c-8.837 0-16-7.163-16-16s7.163-16 16-16h56a8 8 0 0 0 5.656-2.344L379.312 144H464v160z" fill="#FFF"/><path d="M336 256H144a8 8 0 0 0 0 16h88v176h-24a8 8 0 0 0 0 16h64a8 8 0 0 0 0-16h-24V272h88a8 8 0 0 0 0-16zm88-240h-40a8 8 0 0 0-8 8v40c0 26.51 21.49 48 48 48s48-21.49 48-48c-.026-26.499-21.501-47.974-48-48zm-15.669 75.939A31.895 31.895 0 0 1 392 64v-7.744a100.297 100.297 0 0 1 59.736 23.408c-8.597 15.376-28.03 20.871-43.405 12.275zM392 40.256V32h32c17.118.058 31.158 13.577 31.864 30.68A116.005 116.005 0 0 0 392 40.256zM96 16H56C29.49 16 8 37.49 8 64s21.49 48 48 48c26.499-.026 47.974-21.501 48-48V24a8 8 0 0 0-8-8zm-8 48c0 17.673-14.327 32-32 32a31.911 31.911 0 0 1-27.736-16.336A100.297 100.297 0 0 1 88 56.256V64zm0-23.744a116.003 116.003 0 0 0-63.864 22.4C24.854 45.562 38.891 32.058 56 32h32v8.256z" fill="#FFF"/></svg>