<svg xmlns="http://www.w3.org/2000/svg" width="512" height="512"><circle cx="255.996" cy="60.812" r="45.043" fill="#f0a32d"/><path d="M329.101 77.346c-7.571 33.44-37.404 58.538-73.1 58.538s-65.529-25.098-73.1-58.538c-26.851 5.983-47.015 29.906-47.015 58.538v60.058c0 16.554 13.475 30.029 30.029 30.029s30.029-13.475 30.029-30.029v-30.029h120.115v30.029c0 16.554 13.475 30.029 30.029 30.029 16.554 0 30.029-13.475 30.029-30.029v-60.058c-.001-28.632-20.166-52.555-47.016-58.538zm159.616 305.376c-21.545-12.439-49.092-5.059-61.531 16.486-12.438 21.543-5.057 49.092 16.488 61.529 21.543 12.439 50.093 5.057 62.53-16.486 12.439-21.544 4.056-49.091-17.487-61.529z" fill="#f0a32d"/><path d="M461.237 280.171l-52.01-30.029c-14.337-8.277-32.743-3.345-41.02 10.992-8.277 14.337-3.345 32.743 10.992 41.02l26.006 15.014-60.058 104.023-26.006-15.014c-14.337-8.277-32.743-3.345-41.02 10.992-8.277 14.337-3.345 32.743 10.992 41.02l52.01 30.029c24.798 14.316 55.598 8.814 74.203-11.448-25.174-23.276-31.994-61.661-14.146-92.576 17.848-30.915 54.5-44.2 87.246-34.038 8.245-26.243-2.391-55.669-27.189-69.985zM84.815 399.209c-12.439-21.545-39.986-28.926-61.531-16.486-21.543 12.438-29.927 39.985-17.487 61.53 12.437 21.543 40.987 28.925 62.53 16.486 21.545-12.439 28.926-39.987 16.488-61.53z" fill="#f0a32d"/><path d="M233.88 417.169c-8.277-14.337-26.684-19.268-41.02-10.992l-26.006 15.014-60.058-104.023 26.006-15.014c14.337-8.277 19.268-26.684 10.992-41.02-8.277-14.337-26.684-19.268-41.02-10.992l-52.01 30.029c-24.798 14.316-35.434 43.742-27.188 69.986 32.745-10.163 69.398 3.123 87.246 34.038s11.028 69.299-14.146 92.576c18.605 20.261 49.405 25.764 74.203 11.448l52.01-30.03c14.336-8.277 19.268-26.684 10.991-41.02z" fill="#f0a32d"/></svg>