<svg xmlns="http://www.w3.org/2000/svg" viewBox="0 0 478.264 478.264" width="512" height="512"><g fill="#D80027"><path d="M296.791 26.383h-68.399v29.361l57.382-.055v63.002c0 18.415 14.957 33.364 33.351 33.364l61.748-.174.678 278.288c0 10.276-8.321 18.621-18.613 18.621H115.309c-10.275 0-18.627-8.345-18.627-18.621V74.475c0-10.26 8.352-18.612 18.627-18.612h2.791v-29.48h-2.791c-26.523 0-48.083 21.584-48.083 48.092V430.17c0 26.51 21.56 48.094 48.083 48.094h247.627c26.51 0 48.102-21.584 48.102-48.094V140.212L296.791 26.383z"/><path d="M136.083 128.329c.361.141.741.211 1.102.211.787 0 1.561-.307 2.128-.896l31.805-32.955a2.977 2.977 0 0 1 2.127-.907c.805 0 1.561.331 2.127.907l31.805 32.955c.568.59 1.34.896 2.129.896a2.94 2.94 0 0 0 2.948-2.946V12.924C212.254 5.784 206.47 0 199.33 0h-52.167c-7.14 0-12.923 5.784-12.923 12.924v112.67a2.936 2.936 0 0 0 1.843 2.735z"/></g></svg>