<svg id="Capa_1" xmlns="http://www.w3.org/2000/svg" viewBox="0 0 512 512"><style>.st0{fill:#fff}</style><path class="st0" d="M317.7 28.2h-73.2v31.4l61.4-.1v67.4c0 19.7 16 35.7 35.7 35.7l66.1-.2.7 297.9c0 11-8.9 19.9-19.9 19.9H123.4c-11 0-19.9-8.9-19.9-19.9V79.7c0-11 8.9-19.9 19.9-19.9h3V28.2h-3C95 28.2 72 51.4 72 79.7v380.8c0 28.4 23 51.5 51.4 51.5h265.1c28.4 0 51.5-23.1 51.5-51.5V150.1L317.7 28.2z"/><path class="st0" d="M145.7 137.4c.4.2.8.2 1.2.2.8 0 1.7-.3 2.3-1l34-35.3c.6-.6 1.4-1 2.3-1 .9 0 1.7.4 2.3 1l34 35.3c.6.6 1.4 1 2.3 1 .4 0 .8-.1 1.2-.2 1.2-.5 2-1.6 2-2.9V13.8C227.2 6.2 221 0 213.4 0h-55.8c-7.6 0-13.8 6.2-13.8 13.8v120.6c-.1 1.3.7 2.5 1.9 3z"/></svg>