<svg xmlns="http://www.w3.org/2000/svg" viewBox="0 0 241.933 241.933" width="512" height="512"><g fill="#FFF"><path d="M213.937 85.577l-18.398-19.016 3.706-26.192a7.499 7.499 0 0 0-6.131-8.438l-26.058-4.568-12.404-23.377a7.5 7.5 0 0 0-9.919-3.222L120.969 12.38 97.199.764a7.5 7.5 0 0 0-9.919 3.224L74.881 27.363 48.82 31.931a7.5 7.5 0 0 0-6.131 8.438l3.705 26.192-18.398 19.016a7.5 7.5 0 0 0 .001 10.43l18.397 19.014-3.705 26.206a7.5 7.5 0 0 0 6.131 8.437l20.857 3.656v81.113a7.499 7.499 0 0 0 10.854 6.708l40.439-20.212 40.433 20.212a7.5 7.5 0 0 0 10.854-6.709v-81.111l20.858-3.658a7.5 7.5 0 0 0 6.131-8.438l-3.706-26.206 18.397-19.013a7.5 7.5 0 0 0 0-10.429zm-89.614 120.258a7.499 7.499 0 0 0-6.707 0l-32.939 16.464v-49.605l2.604 4.909a7.499 7.499 0 0 0 9.92 3.222l23.769-11.624 23.762 11.624a7.503 7.503 0 0 0 9.921-3.221l2.604-4.905v49.6l-32.934-16.464zm57.886-98.61a7.5 7.5 0 0 0-2.036 6.266l3.203 22.651-22.521 3.949a7.502 7.502 0 0 0-5.33 3.871l-10.721 20.2-20.539-10.047a7.508 7.508 0 0 0-6.591 0L97.13 164.162l-10.717-20.199a7.497 7.497 0 0 0-5.33-3.872l-22.526-3.949 3.202-22.652a7.498 7.498 0 0 0-2.036-6.265L43.822 90.791l15.902-16.436a7.502 7.502 0 0 0 2.035-6.265l-3.202-22.637 22.526-3.949a7.502 7.502 0 0 0 5.331-3.873l10.717-20.205 20.545 10.04a7.499 7.499 0 0 0 6.587 0l20.539-10.04 10.723 20.206a7.502 7.502 0 0 0 5.33 3.872l22.521 3.948-3.203 22.637a7.503 7.503 0 0 0 2.035 6.266l15.902 16.436-15.901 16.434z"/><path d="M120.969 39.507c-28.283 0-51.293 23.006-51.293 51.285 0 28.285 23.01 51.296 51.293 51.296 28.279 0 51.286-23.011 51.286-51.296 0-28.279-23.007-51.285-51.286-51.285zm0 87.581c-20.012 0-36.293-16.282-36.293-36.296 0-20.008 16.281-36.285 36.293-36.285 20.008 0 36.286 16.277 36.286 36.285 0 20.014-16.278 36.296-36.286 36.296z"/><path d="M136.258 71.765l-22.155 22.15-8.431-8.421a7.5 7.5 0 1 0-10.6 10.612l13.733 13.718a7.474 7.474 0 0 0 5.3 2.194 7.477 7.477 0 0 0 5.303-2.196l27.455-27.449a7.5 7.5 0 0 0 .001-10.607 7.5 7.5 0 0 0-10.606-.001z"/></g></svg>