<svg id="Layer_1" xmlns="http://www.w3.org/2000/svg" viewBox="0 0 76 51"><style>.st0{fill:#fff}</style><path class="st0" d="M45 1.8h.8v.8H45zm17.3 10.3h.8v.8h-.8zm10.1-.9c.2-.1.4-.2.5-.4.1-.2.2-.4.3-.7.1-.3.1-.6.1-.9V3.4h-.8v6.4c0 .2-.1.3-.1.4-.1.1-.1.2-.2.2s-.2.1-.4.1h-.2c-.1 0-.1 0-.2-.1l-.4.9c.2.1.5.1.7.1.2 0 .5-.1.7-.2zM69.5 2h-1.1v-.2c0-.1 0-.2.1-.2 0 0 .1-.1.3-.1h.6V.9h-.6c-.3 0-.6.1-.7.2-.2.2-.3.4-.3.8v.7h1.8V2zm-8.9 10.1h.8v.8h-.8zm-14-10.3h.8v.8h-.8zm19.2 6.6c.3.2.7.4 1.1.5.4.1.9.2 1.3.2h.2l.3-.6v.8c0 .4-.1.7-.4.9-.3.2-.6.3-1.1.3-.3 0-.5 0-.7-.1-.2 0-.4-.1-.7-.2l-.2.8c.3.1.6.2.8.3.2.1.5.1.7.1.8 0 1.4-.2 1.8-.6.4-.4.6-.9.6-1.6V3.4h-1.3c-.5 0-1 .1-1.4.2-.4.2-.8.4-1.1.7-.3.3-.5.6-.7.9-.2.4-.2.7-.2 1.1 0 .5.1.9.3 1.3.1.3.4.6.7.8zm0-2.9c.1-.2.3-.5.5-.6.2-.2.5-.3.7-.4.3-.1.5-.1.8-.1h1.3l-.5.2v3.7h-.8c-.3 0-.6 0-.9-.1-.3-.1-.5-.2-.7-.4-.2-.2-.4-.4-.5-.6-.1-.2-.2-.5-.2-.8.1-.4.2-.7.3-.9zm-20.6 5.7h1.7v-.6s0 .1.1.1c.1.2.3.3.5.4.2.1.5.1.8.1h15.2V3.4h-.8v7H48.2c-.2 0-.3 0-.4-.1-.1 0-.2-.1-.2-.2-.1-.1-.1-.2-.1-.4V3.4h-2.3c-2.3 0-3.9 1.8-3.9 3.9 0 2.1 1.6 3.9 3.9 3.9zm-3-3.9c0-1.7 1.2-3.1 3-3.1h1.9l-.5.3v4.7c0 .3 0 .6.1.9 0 .2.1.3.1.4h-1.6c-1.7 0-3-1.4-3-3.2zm-5 1.9l.3.9-5.3-6.7h-.8v7.8h.9V5.3l-.5-1.1 5.5 7h.7V3.4h-.8zM49 23.7l4.8-4.6V16H41v3.6h6.6L50 18l-6.1 6.1.7 2.7h1.7c2.3 0 3.7.9 3.7 2.4v.1c0 1.4-1.1 2.3-2.7 2.3-1.9 0-3.3-.8-4.6-2.3L39.9 32c1.6 1.9 4 3.3 7.4 3.3 4.2 0 6.8-2.6 6.8-6.2V29c0-3.5-2.5-4.9-5.1-5.3zM26 3.3c-2.4 0-4 1.9-4 4 0 2.2 1.6 4 4 4s4-1.9 4-4-1.6-4-4-4zm3 4.1c0 1.8-1.3 3.2-3.1 3.2s-3.1-1.4-3.1-3.2c0-1.8 1.3-3.2 3.1-3.2 1.9-.1 3.1 1.4 3.1 3.2z"/><path d="M65.3 15.7c-5.9 0-10.1 4.4-10.1 9.8v.1c0 5.4 4.2 9.7 10.1 9.7 5.9 0 10.1-4.4 10.1-9.8v-.1c0-5.4-4.2-9.7-10.1-9.7zm5.7 9.8c0 3.2-2.3 5.9-5.7 5.9-3.4 0-5.8-2.7-5.8-6v-.1c0-3.2 2.3-5.9 5.7-5.9 3.4.1 5.8 2.8 5.8 6.1z" fill="#fdfdff"/><path class="st0" d="M19.6 3.4h.9v7.8h-.9zM5.4 32.8l.8-.6 4.2-3.2c3.4-2.6 5-4.2 5-7.3v-.1c0-3.5-2.6-5.8-6.5-5.8-3.4 0-5.2 1.4-7.1 3.9L4.7 22c1.4-1.7 2.4-2.5 3.9-2.5s2.6.9 2.6 2.5-.9 2.6-3.3 4.5l-6.3 5.2V35h14.1v-3.6H8.3l-2.9 1.4zm.1-21.5l3.3-7.9h-.9L5.2 9.8l.1.9-.2-.5-2.3-5.6-.5-1.2h-1l3.4 7.9zM10 3.4h.9v7.8H10zm5.6 3.5c-1.7-.4-2.1-.8-2.1-1.5s.6-1.3 1.7-1.3c.8 0 1.5.3 2.3.8l.5-.7c-.8-.6-1.6-1-2.7-1-1.5 0-2.6.9-2.6 2.1 0 1.3.8 1.9 2.6 2.3 1.6.3 2 .8 2 1.5 0 .8-.7 1.3-1.7 1.3-1.1 0-1.9-.4-2.7-1.1l-.5.6c.9.8 2 1.2 3.2 1.2 1.6 0 2.7-.9 2.7-2.2-.2-1-1-1.6-2.7-2zm11.3 7.5l1 .9-1 1-.9-.9zm2.2 1l1 .9.9-1-1-.9zm-1.4 1.2l.8.7.7-.7-.7-.8zm2.8.4l.7.7.8-.7-.8-.8zm-4 .7l.8.7.7-.7-.8-.7zm2.5.1l.8.7.7-.7-.8-.7zm-1 .9l.6.5.5-.5-.5-.6zm2 .4l.6.5.5-.5-.6-.6z"/><path transform="rotate(-10.391 35.335 15.74)" class="st0" d="M34.5 14.9h1.7v1.7h-1.7z"/><path transform="rotate(-10.376 33.018 16.291)" class="st0" d="M32.3 15.6h1.3v1.3h-1.3z"/><path transform="rotate(-10.391 35.546 18.112)" class="st0" d="M34.9 17.4h1.3v1.3h-1.3z"/><path transform="rotate(-10.382 33.572 18.188)" class="st0" d="M33.1 17.7h1v1h-1z"/><path transform="rotate(-10.382 35.559 20.124)" class="st0" d="M35 19.6h1v1h-1z"/><path transform="rotate(-10.382 32.043 18.603)" class="st0" d="M31.5 18.1h1v1h-1z"/><path transform="rotate(-10.382 33.896 19.937)" class="st0" d="M33.4 19.4h1v1h-1z"/><path transform="rotate(-10.391 32.415 19.94)" class="st0" d="M32 19.6h.7v.7H32z"/><path transform="rotate(-10.359 33.796 21.42)" class="st0" d="M33.4 21.1h.7v.7h-.7z"/><path class="st0" d="M39.2 20.4l-.7 1.5 1.5.7.7-1.5zm-2.1-.7l-.6 1.2 1.2.6.6-1.2zm1 3l-.6 1.2 1.2.6.6-1.2zm-1.6-.9l-.4.9.9.5.4-1zm.5 2.7l-.5.9 1 .5.4-.9zm-2-3.3l-.4 1 .9.4.5-.9zm.7 2.2l-.4.9.9.5.5-1zm-1.1-.7l-.3.7.7.3.3-.7z"/><path transform="rotate(-64.552 35.04 25.222)" class="st0" d="M34.7 24.9h.7v.7h-.7z"/><path class="st0" d="M40 27.6l-1.4.8.8 1.4 1.4-.8zm-1.3-1.8l-1.2.6.7 1.2 1.2-.7zm-.9 3l-1.2.6.7 1.2 1.1-.7zm-.8-1.7l-.9.5.5.9.9-.5zm-1.2 2.5l-.9.5.5.9.9-.5zm.4-3.8l-1 .5.5.9 1-.5zm-.7 2.2l-.9.5.5.9.9-.5zm-.6-1.2l-.6.3.4.7.6-.4zm-.9 1.7l-.7.4.4.6.6-.3z"/><path transform="rotate(-82.958 35.562 34.594)" class="st0" d="M34.7 33.8h1.7v1.7h-1.7z"/><path transform="rotate(-82.935 35.736 32.217)" class="st0" d="M35.1 31.6h1.3v1.3h-1.3z"/><path transform="rotate(-82.935 33.233 34.084)" class="st0" d="M32.6 33.4h1.3v1.3h-1.3z"/><path transform="rotate(-82.952 33.759 32.179)" class="st0" d="M33.2 31.7h1v1h-1z"/><path transform="rotate(-82.952 31.313 33.49)" class="st0" d="M30.8 33h1v1h-1z"/><path transform="rotate(-82.935 33.819 30.597)" class="st0" d="M33.3 30.1h1v1h-1z"/><path transform="rotate(-82.935 31.988 31.962)" class="st0" d="M31.5 31.4h1v1h-1z"/><path transform="rotate(-82.946 32.432 30.553)" class="st0" d="M32.1 30.2h.7v.7h-.7z"/><path transform="rotate(-82.952 30.602 31.423)" class="st0" d="M30.2 31.1h.7v.7h-.7z"/><path class="st0" d="M29.9 36.9l-1.2-1.1-1.1 1.2 1.2 1.1zm-.2-23.2l-1.2-1.2-1.1 1.3 1.2 1.1zm1.5 21.4l-.9-.9-1 1 1 .9zm-3.1 0l-1-.9-.9 1 1 .9zm1.3-1.2l-.7-.7-.7.8.7.7zm-2.7-.4l-.8-.7-.7.8.8.7zm3.7-.8l-.7-.8-.8.8.8.7zm-2.3 0l-.7-.7-.7.7.7.8zm1-.9l-.5-.5-.5.6.5.4zm-2-.3l-.5-.5-.5.5.5.5z"/><path transform="rotate(-11.333 21.854 34.874)" class="st0" d="M21 34h1.7v1.7H21z"/><path transform="rotate(-11.333 24.163 34.284)" class="st0" d="M23.5 33.6h1.3v1.3h-1.3z"/><path transform="rotate(-11.344 21.6 32.494)" class="st0" d="M20.9 31.8h1.3v1.3h-1.3z"/><path transform="rotate(-11.333 23.578 32.399)" class="st0" d="M23.1 31.9h1v1h-1z"/><path transform="rotate(-11.333 25.1 31.959)" class="st0" d="M24.6 31.4h1v1h-1z"/><path transform="rotate(-11.333 23.226 30.655)" class="st0" d="M22.7 30.1h1v1h-1z"/><path transform="rotate(-11.314 24.714 30.633)" class="st0" d="M24.3 30.3h.7v.7h-.7z"/><path transform="rotate(-11.344 23.307 29.17)" class="st0" d="M22.9 28.8h.7v.7h-.7z"/><path class="st0" d="M17.9 30.3l.7-1.5-1.5-.7-.7 1.5zm2.1.6l.6-1.2-1.2-.5-.6 1.2zM19 28l.5-1.2-1.2-.6-.5 1.2z"/><path transform="rotate(-65.485 20.326 28.165)" class="st0" d="M19.8 27.6h1v1h-1z"/><path class="st0" d="M21.8 31.2l.5-.9-1-.5-.4 1z"/><path transform="rotate(-65.474 19.805 25.442)" class="st0" d="M19.3 24.9h1v1h-1z"/><path transform="rotate(-65.474 21.819 28.696)" class="st0" d="M21.3 28.2h1v1h-1z"/><path transform="rotate(-65.455 21.064 26.545)" class="st0" d="M20.5 26h1v1h-1z"/><path class="st0" d="M22.5 27.9l.3-.7-.7-.3-.3.7zm-.3-2l.3-.7-.7-.3-.3.7zM17 23.1l1.4-.8-.8-1.5-1.5.9zm1.3 1.8l1.2-.7-.7-1.1-1.2.6zm.9-3l1.2-.7-.7-1.1-1.2.6zm.8 1.6l.9-.5-.5-.9-.9.5zm1.1-2.5l.9-.5-.5-.9-.9.5zm-.2 3.8l.9-.5-.5-.9-.9.5zm.6-2.1l.9-.6-.5-.9-.9.6zm.6 1.1l.6-.3-.4-.7-.6.4zM23 22l.6-.3-.3-.6-.7.3z"/><path transform="rotate(-83.898 21.315 16.024)" class="st0" d="M20.5 15.2h1.7v1.7h-1.7z"/><path transform="rotate(-83.892 21.184 18.404)" class="st0" d="M20.5 17.7h1.3V19h-1.3z"/><path transform="rotate(-83.892 23.656 16.497)" class="st0" d="M23 15.8h1.3v1.3H23z"/><path transform="rotate(-83.886 23.165 18.41)" class="st0" d="M22.6 17.9h1v1h-1z"/><path transform="rotate(-83.91 25.585 17.059)" class="st0" d="M25.1 16.5h1v1h-1z"/><path transform="rotate(-83.886 23.128 19.993)" class="st0" d="M22.6 19.5h1v1h-1z"/><path transform="rotate(-83.886 24.936 18.597)" class="st0" d="M24.4 18.1h1v1h-1z"/><path transform="rotate(-83.892 24.516 20.014)" class="st0" d="M24.2 19.6h.7v.7h-.7z"/><path transform="rotate(-83.927 26.332 19.114)" class="st0" d="M26 18.7h.7v.7H26z"/><path class="st0" d="M33.8 26.3c-.1-.1-.3-.2-.7-.3-.4-.1-1.1-.2-1.8-.1-.2 0-.5.1-.8.2h-.1c-.1.1-.3.1-.4.2-.1.1-.2.1-.4.2-.3.2-.5.3-.8.5-.3-1.8-.1-3.4-.1-4.2.6.4.5 1.5.3 1.8.8-.9.4-1.9.2-2.2l.3.3c.2.3.3.6.4.9v.5c.2-.4.3-1 0-1.6-.1-.2-.2-.3-.4-.5l-.1-.1h.1c.1 0 .3.1.4.2.2.2.4.4.5.7.1.2.1.4.1.6.1-.5.1-.9-.1-1.2-.1-.2-.3-.4-.5-.5-.1-.1-.2-.1-.4-.2h-.2.6c.2 0 .4.1.5.2.2.1.3.3.3.4 0-.3-.2-.5-.3-.7-.1-.1-.3-.2-.5-.3-.1 0-.2 0-.4-.1-.2 0-.3 0-.4.1.1-.2.3-.3.4-.3h.4c.1 0 .2 0 .3.1-.1-.1-.2-.2-.3-.2-.1-.1-.2-.1-.4-.1-.3 0-.6.1-.9.4 0-.1-.1-.2-.1-.2-.1-.2-.2-.4-.2-.6 0 .2-.1.4-.2.6 0 .1-.1.2-.1.2-.4-.6-1.1-.6-1.5-.1.3-.1.8-.1 1.1.3-.4-.2-1.1-.1-1.4.3-.1.1-.2.3-.2.6 0-.1.1-.2.2-.3.2-.2.6-.4 1.1-.3-.3 0-.9.3-1.1.9-.1.3-.1.6 0 1 0-.5.3-1.3 1.1-1.5-.9.8-.8 1.7-.5 2.3 0-.4-.1-1.2.6-1.7-.2.3-.5 1.3.2 2.2-.1-.3-.3-1.4.3-1.8.1.8.2 2.4-.1 4.2-.5-.4-1-.7-1.6-.9-.1 0-.1 0-.2-.1-.5-.2-1-.2-1.5-.2-.7 0-1.2.2-1.5.4-.1 0-.1.1-.1.1h.1c.5-.2 1-.2 1.5-.1.5 0 1 .2 1.5.4.6.3 1.2.7 1.8 1.1-.7.6-1.4 1.3-1.8 1.5h-.1c-.1-.1-.3-.2-.4-.2-.2 0-.3.2-.3.3 0 .1 0 .3.1.4.2.2.4.2.7.1.5-.2 1.2-.9 1.9-1.6l.2-.2.2.2c.4.3.7.6 1 .9.1.1.2.2.4.3.2.1.3.3.5.3.3.2.6.2.8 0 .1-.1.1-.2.1-.4 0-.1-.1-.1-.1-.2-.1-.1-.1-.1-.2-.1-.2 0-.3 0-.4.2-.1 0-.1-.1-.2-.1-.1-.1-.3-.2-.5-.4-.1-.1-.2-.2-.4-.3-.2-.2-.5-.5-.8-.7.3-.2.5-.4.8-.6.1-.1.2-.2.4-.2.2-.1.3-.2.5-.3.3-.1.5-.2.8-.3.6-.2 1.2-.2 1.8-.1h1c0 .1 0 .1 0 0m-28.4 18h.5v.5h-.5zm33.6-.6v-3.3h-.5v2.8h-1.8v-2.8h-.5v2.8h-1.9v-2.8h-.8c-.3 0-.6 0-.8.1-.2.1-.5.2-.6.3-.2.1-.3.3-.4.5-.1.2-.1.4-.1.7 0 .3.1.5.2.7.1.2.3.4.4.5l.6.3c.2.1.5.1.8.1H39zm-6.2-.5c-.2-.1-.3-.1-.4-.2-.1-.1-.2-.2-.3-.4-.1-.2-.1-.3-.1-.5s0-.3.1-.5c.1-.1.2-.3.3-.4.1-.1.3-.2.4-.2.2-.1.3-.1.5-.1h.5v2.3h-.5c-.2.1-.4 0-.5 0zm-4.2-3.8h.5v4.4h-.5zm5.1 0h.5v.5h-.5zm4.8 4.9h.5v.5h-.5zm-32.3 0h.5v.5h-.5zm20.5-1h-.8c-.3 0-.5 0-.7-.1-.2-.1-.3-.2-.4-.4v-2.1h-.5v1.6c0 .3-.1.5-.2.7-.1.2-.4.3-.7.3-.1 0-.3 0-.4-.1-.1 0-.2-.1-.3-.2-.1-.1-.2-.2-.2-.3 0-.1-.1-.2-.1-.3v-1.7H22v1.7c0 .1 0 .3-.1.4 0 .1-.1.2-.2.3-.1.1-.2.1-.3.1h-1.2v-2.5h-.5v2.5h-2.6l.9-2c-.1-.1-.3-.2-.4-.3-.1-.1-.3-.2-.4-.3-.2-.1-.3-.1-.5-.2-.2 0-.3-.1-.5-.1s-.3 0-.5.1c-.2 0-.3.1-.5.2s-.3.2-.4.3c-.1.1-.3.2-.4.3l.9 2h-1.7v-2.8h-.8c-.3 0-.6 0-.8.1-.2.1-.5.2-.6.3-.2.1-.3.3-.4.5-.1.2-.1.4-.1.7 0 .3.1.5.2.7.1.2.3.4.4.5l.6.3c.2.1.5.1.8.1h.3v.1c0 .3-.1.4-.2.5s-.4.2-.6.2H12c-.1 0-.3-.1-.4-.1l-.2.5c.2.1.4.1.5.2.1 0 .3.1.4.1.5 0 .8-.1 1-.3.2-.2.3-.5.3-.9v-.1h7.6c.2 0 .4-.1.6-.2.2-.1.3-.2.4-.4.1.2.3.3.5.5.2.1.4.2.7.2.3 0 .5-.1.7-.2.2-.1.4-.3.5-.5 0 .1.1.1.1.2l.2.2c.1.1.2.1.3.1h1.7v-4.4h-.5v4zm-13.5 0h-.5c-.2 0-.4 0-.5-.1-.2-.1-.3-.1-.4-.2-.1-.1-.2-.2-.3-.4-.1-.1-.1-.3-.1-.5s0-.3.1-.5c.1-.1.2-.3.3-.4.1-.1.3-.2.4-.2.2-.1.3-.1.5-.1h.5v2.4zm2.6 0l-.8-1.9c.2-.2.4-.3.6-.3.2-.1.4-.1.6-.1.2 0 .4 0 .7.1.2.1.4.2.5.3l-.8 1.9h-.8zM3.7 39.4h.5v.5h-.5zm49.2 0h.5v.5h-.5zm-4.3 0h.5v4.4h-.5zm-15.7 0h.5v.5h-.5zm-22.8 2.4c0-.2 0-.4-.1-.5 0-.2-.1-.3-.2-.4-.1-.1-.3-.2-.4-.3-.2-.1-.4-.1-.6-.1h-.4v.5h.4c.1 0 .2 0 .3.1.1.1.2.1.3.2.1.1.1.2.1.3v1.8H7.3v.5h2.8v-2.1zm64.2-2.4h.5v4.4h-.5zm-20.6 0h.5v.5h-.5zm19.2 0h-.5v3.9h-1.7c.1-.2.2-.5.2-.7 0-.3 0-.5-.1-.7-.1-.2-.2-.4-.4-.6-.2-.2-.3-.3-.6-.4-.2-.1-.5-.1-.7-.1-.2 0-.5 0-.7.1-.2.1-.4.2-.5.4-.2.2-.3.3-.4.6-.1.2-.1.4-.1.7v.4c0 .1.1.2.1.3H66c.1-.2.2-.5.2-.7 0-.3 0-.5-.1-.7-.1-.2-.2-.4-.4-.6-.2-.2-.3-.3-.6-.4-.2-.1-.5-.1-.7-.1-.2 0-.5 0-.7.1-.2.1-.4.2-.5.4-.2.2-.3.3-.4.6-.1.2-.1.4-.1.7v.4c0 .1.1.2.1.3h-1.5v-3.9h-.5v3.9h-1.5v-.7c0-.2 0-.4-.1-.5 0-.2-.1-.3-.2-.4-.1-.1-.3-.2-.4-.3-.2-.1-.4-.1-.6-.1h-2.2l.9-1.7h-.5l-.9 1.7c0 .1 0 .2.1.3 0 .1.1.1.1.2H58c.2 0 .3 0 .4.1.1 0 .2.1.3.2.1.1.1.2.1.3v1.1h-4.5v-2.8h-.8c-.3 0-.6 0-.8.1-.2.1-.5.2-.6.3-.2.1-.3.3-.4.5-.1.2-.1.4-.1.7 0 .3.1.5.2.7.1.2.3.4.4.5l.6.3c.2.1.5.1.8.1h9.6c.2.2.3.3.6.4.2.1.5.1.7.1.3 0 .5 0 .7-.1.2-.1.4-.2.6-.4h2.1c.2.2.3.3.6.4.2.1.5.1.7.1.3 0 .5 0 .7-.1.2-.1.4-.2.6-.4H73v-4.5zm-19.1 3.9h-.5c-.2 0-.4 0-.5-.1-.2-.1-.3-.1-.4-.2-.1-.1-.2-.2-.3-.4-.1-.2-.1-.3-.1-.5s0-.3.1-.5c.1-.1.2-.3.3-.4.1-.1.3-.2.4-.2.2-.1.3-.1.5-.1h.5v2.4zm11.8-.3c-.1.2-.2.3-.3.4-.1.1-.3.2-.4.3-.2.1-.3.1-.5.1s-.3 0-.5-.1-.3-.2-.4-.3c-.1-.1-.2-.2-.3-.4-.1-.2-.1-.3-.1-.5s0-.3.1-.5.1-.3.3-.4c.1-.1.2-.2.4-.3.2-.1.3-.1.5-.1s.4 0 .5.1c.2.1.3.2.4.3.1.1.2.2.3.4.1.2.1.3.1.5s-.1.4-.1.5zm4.7 0c-.1.2-.2.3-.3.4-.1.1-.3.2-.4.3-.2.1-.3.1-.5.1s-.3 0-.5-.1-.3-.2-.4-.3c-.1-.1-.2-.2-.2-.4-.1-.2-.1-.3-.1-.5s0-.3.1-.5.1-.3.3-.4c.1-.1.2-.2.4-.3.2-.1.3-.1.5-.1s.4 0 .5.1c.2.1.3.2.4.3.1.1.2.2.3.4.1.2.1.3.1.5-.1.2-.1.4-.2.5zm-67.6.6c.2.1.5.1.8.1h3.2v-3.3h-.5v2.8h-2v-2.8h-.7c-.3 0-.6 0-.8.1-.2.1-.5.2-.6.3-.2.1-.3.3-.4.5-.1.2-.1.4-.1.7 0 .3.1.5.2.7.1.2.3.4.4.5 0 .3.3.4.5.4zm-.8-1.5c0-.2 0-.3.1-.5.1-.1.2-.3.3-.4.1-.1.3-.2.4-.2.2-.1.3-.1.5-.1h.5v2.3h-.4c-.2 0-.4 0-.5-.1-.2-.1-.3-.1-.4-.2-.1-.1-.2-.2-.3-.4-.1-.1-.2-.2-.2-.4zm34.8 2.2h.5v.5h-.5zm-.8 0h.5v.5h-.5zm5 .1v-.6h6.3v-4.4h-.5v3.9h-2.1l.9-2c-.1-.1-.3-.2-.4-.3-.1-.1-.3-.2-.4-.3-.2-.1-.3-.1-.5-.2-.2 0-.3-.1-.5-.1s-.3 0-.5.1c-.2 0-.3.1-.5.2s-.3.2-.4.3c-.1.1-.3.2-.4.3l.9 2H41v-2.8h-.5v3.7c0 .1 0 .2-.1.2 0 .1-.1.1-.1.1h-.4l-.3.5c.1 0 .3.1.4.1.2 0 .3 0 .4-.1.1-.1.2-.1.3-.2.1-.2.1-.3.2-.4zm1.6-3c.2-.2.4-.3.6-.3.2-.1.4-.1.6-.1.2 0 .4 0 .7.1.2.1.4.2.5.3l-.8 1.9h-.9l-.7-1.9zm-39.6-2h.5v.5h-.5zm2 7.5h-.7l-1.7 1.8v-1.8h-.6v3.5h.6v-1l.6-.6 1.2 1.6H5l-1.5-2zm.7 0h.6v3.5h-.6zm3.9 2.4l-1.8-2.4h-.6v3.5h.6v-2.5l1.9 2.5h.5v-3.5h-.6zm3.2-.3h.9v.6c-.2.2-.5.3-.8.3-.7 0-1.2-.5-1.2-1.2s.5-1.2 1.1-1.2c.4 0 .7.1 1 .4l.4-.5c-.4-.3-.7-.5-1.3-.5-1 0-1.8.8-1.8 1.8s.7 1.8 1.8 1.8c.6 0 1.1-.2 1.4-.5v-1.5h-1.5v.5zm3.6-2.1H15v3.5h1.3c1.1 0 1.8-.8 1.8-1.7 0-1-.7-1.8-1.8-1.8zm1.2 1.8c0 .7-.5 1.2-1.2 1.2h-.7v-2.4h.7c.7 0 1.2.5 1.2 1.2zm3-1.8c-1.1 0-1.8.8-1.8 1.8s.7 1.8 1.8 1.8 1.8-.8 1.8-1.8-.7-1.8-1.8-1.8zm1.2 1.8c0 .7-.5 1.2-1.2 1.2s-1.2-.6-1.2-1.2c0-.7.5-1.2 1.2-1.2.7-.1 1.2.5 1.2 1.2zm3.1-.1l-1.1-1.7h-.6v3.5h.6v-2.5l1.1 1.6 1.1-1.6v2.5h.6v-3.5h-.6zm5.7-1.7c-1.1 0-1.8.8-1.8 1.8s.7 1.8 1.8 1.8 1.8-.8 1.8-1.8c.1-1-.7-1.8-1.8-1.8zm1.2 1.8c0 .7-.5 1.2-1.2 1.2s-1.2-.6-1.2-1.2c0-.7.5-1.2 1.2-1.2.7-.1 1.2.5 1.2 1.2zm1.4 1.7h.6V49h1.8v-.6h-1.8v-.9h2v-.6h-2.6zm6.1-2c-.7-.2-.8-.3-.8-.5s.2-.4.6-.4c.3 0 .6.1.9.4l.3-.5c-.4-.3-.8-.4-1.3-.4-.7 0-1.2.4-1.2 1s.4.9 1.2 1c.6.1.8.3.8.5 0 .3-.2.4-.6.4-.4 0-.8-.2-1.1-.5l-.4.4c.4.4.9.6 1.4.6.7 0 1.2-.4 1.2-1 .1-.6-.3-.8-1-1zm3-1.5l-1.5 3.5h.6l.4-.8h1.6l.4.8h.6l-1.5-3.5h-.6zm-.3 2.1l.6-1.4.6 1.4h-1.2zm5.1-.1c0 .6-.3 1-.9 1-.5 0-.9-.3-.9-1v-2h-.6v2c0 1 .6 1.5 1.5 1.5s1.5-.5 1.5-1.6v-2H47v2.1zm2.8-2h-1.3v3.5h1.3c1.1 0 1.8-.8 1.8-1.7 0-1-.7-1.8-1.8-1.8zm1.2 1.8c0 .7-.5 1.2-1.2 1.2h-.7v-2.4h.7c.7 0 1.2.5 1.2 1.2zm1.4-1.8h.6v3.5h-.6zm4.3 0l-1.5 3.5h.6l.4-.8h1.6l.4.8h.6l-1.5-3.5h-.6zm-.4 2.1l.6-1.4.6 1.4h-1.2zm5.9-1c0-.3-.1-.6-.3-.8-.2-.2-.6-.3-1-.3h-1.5v3.5h.6v-1.2h.8l.9 1.2h.7l-.9-1.3c.3-.2.7-.5.7-1.1zm-2.3.6v-1.2h.9c.5 0 .7.2.7.6 0 .4-.3.6-.7.6h-.9zm4.4-1.7l-1.5 3.5h.6l.4-.8h1.6l.4.8h.6l-1.5-3.5h-.6zm-.4 2.1l.6-1.4.6 1.4h-1.2zm5.2-.4c.3-.1.5-.4.5-.8 0-.2-.1-.4-.2-.6-.2-.2-.5-.3-.9-.3h-1.6v3.5h1.6c.8 0 1.3-.3 1.3-1 0-.4-.3-.7-.7-.8zm-1.6-1.1h.9c.4 0 .6.2.6.4 0 .3-.3.5-.7.5h-.8v-.9zm1.7 1.9c0 .3-.3.5-.7.5h-1v-1h1c.5 0 .7.2.7.5zm1.4-2.5h.6v3.5h-.6zm3.3 0h-.6l-1.5 3.5h.6l.4-.8h1.6l.4.8h.6l-1.5-3.5zM73 49l.6-1.4.6 1.4H73z"/></svg>