<?xml version="1.0" encoding="utf-8"?>
<!-- Generator: Adobe Illustrator 22.1.0, SVG Export Plug-In . SVG Version: 6.00 Build 0)  -->
<svg version="1.1" id="Layer_1" xmlns="http://www.w3.org/2000/svg" xmlns:xlink="http://www.w3.org/1999/xlink" x="0px" y="0px"
	 viewBox="0 0 875 470" style="enable-background:new 0 0 875 470;" xml:space="preserve">
<style type="text/css">
	.Drop_x0020_Shadow{fill:none;}
	.Outer_x0020_Glow_x0020_5_x0020_pt{fill:none;}
	.Blue_x0020_Neon{fill:none;stroke:#8AACDA;stroke-width:7;stroke-linecap:round;stroke-linejoin:round;}
	.Chrome_x0020_Highlight{fill:url(#SVGID_1_);stroke:#FFFFFF;stroke-width:0.3629;stroke-miterlimit:1;}
	.Jive_GS{fill:#FFDD00;}
	.Alyssa_GS{fill:#A6D0E4;}
	.st0{fill:#FFFFFF;}
</style>
<linearGradient id="SVGID_1_" gradientUnits="userSpaceOnUse" x1="-237" y1="-117" x2="-237" y2="-118">
	<stop  offset="0" style="stop-color:#656565"/>
	<stop  offset="0.618" style="stop-color:#1B1B1B"/>
	<stop  offset="0.6292" style="stop-color:#545454"/>
	<stop  offset="0.9831" style="stop-color:#3E3E3E"/>
</linearGradient>
<g>
	<path class="st0" d="M103,415.7c-15.8,0-29.3-2.7-40.5-8.2c-11.2-5.5-20.3-13-27.4-22.5c-7.1-9.5-12.3-20.8-15.7-33.9
		c-3.4-13-5.1-27.1-5.1-42.2c0-8.1,0.9-17.9,2.6-29.1c1.7-11.3,4.2-22.3,7.5-33l58.3-10.5c-4.9,14.2-8.5,26.5-10.8,36.8
		c-2.3,10.4-3.5,19.8-3.5,28.4c0,23.3,2.8,40.3,8.6,51.1c5.7,10.8,15.2,16.2,28.4,16.2c6,0,11.4-1.1,16.1-3.3
		c4.7-2.2,8.5-6,11.5-11.3c3-5.4,5.3-12.3,6.8-20.9c1.5-8.6,2.3-19.4,2.3-32.5v-127h54.1v124.6c0,21.6-1.9,39.9-5.8,54.8
		c-3.8,14.9-9.7,27-17.5,36.3c-7.8,9.3-17.5,16-29.1,20.1C132.2,413.7,118.6,415.7,103,415.7z M105.1,238.8c-4.2,0-8.1-0.8-11.7-2.4
		c-3.6-1.6-6.8-3.8-9.4-6.5c-2.7-2.7-4.8-5.8-6.5-9.4c-1.6-3.6-2.4-7.5-2.4-11.7c0-4,0.8-7.7,2.4-11.3c1.6-3.6,3.8-6.7,6.5-9.4
		c2.7-2.7,5.8-4.8,9.4-6.5c3.6-1.6,7.5-2.4,11.7-2.4s8.1,0.8,11.7,2.4c3.6,1.6,6.7,3.8,9.4,6.5c2.7,2.7,4.8,5.8,6.3,9.4
		c1.5,3.6,2.3,7.4,2.3,11.3c0,4.2-0.8,8.1-2.3,11.7c-1.5,3.6-3.6,6.8-6.3,9.4c-2.7,2.7-5.8,4.8-9.4,6.5
		C113.1,238,109.2,238.8,105.1,238.8z"/>
	<path class="st0" d="M254.8,133.7c-1.2,0-2.5,0-4,0c-1.5,0-3-0.1-4.4-0.3l-19.5-1.4V94.7c10.7-1.9,21.6-3.3,32.6-4.2
		c11-0.9,21.6-1.4,31.6-1.4c1.9,0,4.9,0.1,9.1,0.2c4.2,0.1,7.2,0.2,9.1,0.2V289h27.2v46.4h-81.7V133.7z"/>
	<path class="st0" d="M326.3,289h109.9v-22.7c0-16.8-4-28.7-11.9-35.8c-7.9-7.1-21.4-10.6-40.5-10.6c-11.9,0-24.2,0.7-37,2.1
		l4.2-46.1c5.6-0.7,11.2-1.2,16.8-1.6s12.1-0.5,19.5-0.5c19.3,0,35.6,2.2,48.9,6.6c13.3,4.4,24,10.5,32.3,18.3
		c8.3,7.8,14.2,16.9,17.8,27.2c3.6,10.4,5.4,21.5,5.4,33.3V289h30.4v46.4H326.3V289z M395.8,406.3c-4.2,0-8.1-0.8-11.7-2.4
		c-3.6-1.6-6.8-3.8-9.4-6.5c-2.7-2.7-4.8-5.8-6.5-9.4c-1.6-3.6-2.4-7.5-2.4-11.7c0-4.2,0.8-8.1,2.4-11.7c1.6-3.6,3.8-6.8,6.5-9.4
		c2.7-2.7,5.8-4.8,9.4-6.5c3.6-1.6,7.5-2.4,11.7-2.4c4.2,0,8.1,0.8,11.7,2.4c3.6,1.6,6.7,3.8,9.4,6.5c2.7,2.7,4.8,5.8,6.3,9.4
		c1.5,3.6,2.3,7.5,2.3,11.7c0,4.2-0.8,8.1-2.3,11.7c-1.5,3.6-3.6,6.7-6.3,9.4c-2.7,2.7-5.8,4.8-9.4,6.5
		C403.9,405.5,400,406.3,395.8,406.3z"/>
	<path class="st0" d="M515.5,289h44.3v-200h54.1v200h30.4v46.4H515.5V289z"/>
	<path class="st0" d="M633.1,289h44.3v-200h54.4v246.4h-98.8V289z"/>
	<path class="st0" d="M791.5,133.7c-1.4,0-2.9,0-4.4,0c-1.5,0-2.9-0.1-4-0.3l-19.9-1.4V94.7c10.7-1.9,21.6-3.3,32.6-4.2
		c11-0.9,21.7-1.4,31.9-1.4c1.9,0,4.8,0.1,8.9,0.2c4.1,0.1,7,0.2,8.9,0.2v246h-54.1V133.7z"/>
</g>
</svg>
