<?xml version="1.0" encoding="utf-8"?>
<!-- Generator: Adobe Illustrator 22.1.0, SVG Export Plug-In . SVG Version: 6.00 Build 0)  -->
<svg version="1.1" id="Capa_1" xmlns="http://www.w3.org/2000/svg" xmlns:xlink="http://www.w3.org/1999/xlink" x="0px" y="0px"
	 viewBox="0 0 512 512" style="enable-background:new 0 0 512 512;" xml:space="preserve">
<style type="text/css">
	.st0{fill:#FFFFFF;}
</style>
<g>
	<g>
		<circle class="st0" cx="256" cy="60.8" r="45"/>
	</g>
</g>
<g>
	<g>
		<path class="st0" d="M329.1,77.3c-7.6,33.4-37.4,58.5-73.1,58.5s-65.5-25.1-73.1-58.5c-26.9,6-47,29.9-47,58.5v60.1
			c0,16.6,13.5,30,30,30s30-13.5,30-30v-30H316v30c0,16.6,13.5,30,30,30s30-13.5,30-30v-60.1C376.1,107.3,356,83.3,329.1,77.3z"/>
	</g>
</g>
<g>
	<g>
		<path class="st0" d="M488.7,382.7c-21.5-12.4-49.1-5.1-61.5,16.5c-12.4,21.5-5.1,49.1,16.5,61.5c21.5,12.4,50.1,5.1,62.5-16.5
			C518.6,422.7,510.3,395.2,488.7,382.7z"/>
	</g>
</g>
<g>
	<g>
		<path class="st0" d="M461.2,280.2l-52-30c-14.3-8.3-32.7-3.3-41,11c-8.3,14.3-3.3,32.7,11,41l26,15l-60.1,104l-26-15
			c-14.3-8.3-32.7-3.3-41,11s-3.3,32.7,11,41l52,30c24.8,14.3,55.6,8.8,74.2-11.4c-25.2-23.3-32-61.7-14.1-92.6s54.5-44.2,87.2-34
			C496.7,323.9,486,294.5,461.2,280.2z"/>
	</g>
</g>
<g>
	<g>
		<path class="st0" d="M84.8,399.2c-12.4-21.5-40-28.9-61.5-16.5s-29.9,40-17.5,61.5s41,28.9,62.5,16.5
			C89.9,448.3,97.3,420.8,84.8,399.2z"/>
	</g>
</g>
<g>
	<g>
		<path class="st0" d="M233.9,417.2c-8.3-14.3-26.7-19.3-41-11l-26,15l-60.1-104l26-15c14.3-8.3,19.3-26.7,11-41
			c-8.3-14.3-26.7-19.3-41-11l-52,30c-24.8,14.3-35.4,43.7-27.2,70c32.7-10.2,69.4,3.1,87.2,34s11,69.3-14.1,92.6
			c18.6,20.3,49.4,25.8,74.2,11.4l52-30C237.2,449.9,242.2,431.5,233.9,417.2z"/>
	</g>
</g>
</svg>
