<?xml version="1.0" encoding="utf-8"?>
<!-- Generator: Adobe Illustrator 23.0.1, SVG Export Plug-In . SVG Version: 6.00 Build 0)  -->
<svg version="1.1" id="Capa_1" xmlns="http://www.w3.org/2000/svg" xmlns:xlink="http://www.w3.org/1999/xlink" x="0px" y="0px"
	 viewBox="0 0 512 512" style="enable-background:new 0 0 512 512;" xml:space="preserve">
<style type="text/css">
	.st0{fill:#FFFFFF;}
</style>
<g>
	<path class="st0" d="M317.7,28.2h-73.2v31.4l61.4-0.1v67.4c0,19.7,16,35.7,35.7,35.7l66.1-0.2l0.7,297.9c0,11-8.9,19.9-19.9,19.9
		H123.4c-11,0-19.9-8.9-19.9-19.9V79.7c0-11,8.9-19.9,19.9-19.9h3V28.2h-3C95,28.2,72,51.4,72,79.7v380.8C72,488.9,95,512,123.4,512
		h265.1c28.4,0,51.5-23.1,51.5-51.5V150.1L317.7,28.2z"/>
	<path class="st0" d="M145.7,137.4c0.4,0.2,0.8,0.2,1.2,0.2c0.8,0,1.7-0.3,2.3-1l34-35.3c0.6-0.6,1.4-1,2.3-1c0.9,0,1.7,0.4,2.3,1
		l34,35.3c0.6,0.6,1.4,1,2.3,1c0.4,0,0.8-0.1,1.2-0.2c1.2-0.5,2-1.6,2-2.9V13.8C227.2,6.2,221,0,213.4,0h-55.8
		c-7.6,0-13.8,6.2-13.8,13.8v120.6C143.7,135.7,144.5,136.9,145.7,137.4z"/>
</g>
</svg>
