<?xml version="1.0" encoding="utf-8"?>
<!-- Generator: Adobe Illustrator 22.1.0, SVG Export Plug-In . SVG Version: 6.00 Build 0)  -->
<svg version="1.1" id="Layer_1" xmlns="http://www.w3.org/2000/svg" xmlns:xlink="http://www.w3.org/1999/xlink" x="0px" y="0px"
	 viewBox="0 0 76 51" style="enable-background:new 0 0 76 51;" xml:space="preserve">
<style type="text/css">
	.st0{fill:#FFFFFF;}
	.st1{fill:#FDFDFF;}
</style>
<title>39EB0099-4847-42E3-8B03-C7ABC5DC9682@1.5x</title>
<desc>Created with sketchtool.</desc>
<g>
	<g>
		<rect x="45" y="1.8" class="st0" width="0.8" height="0.8"/>
		<rect x="62.3" y="12.1" class="st0" width="0.8" height="0.8"/>
		<path class="st0" d="M72.4,11.2c0.2-0.1,0.4-0.2,0.5-0.4c0.1-0.2,0.2-0.4,0.3-0.7c0.1-0.3,0.1-0.6,0.1-0.9V3.4h-0.8v5.8
			c0,0.2,0,0.4,0,0.6c0,0.2-0.1,0.3-0.1,0.4c-0.1,0.1-0.1,0.2-0.2,0.2c-0.1,0-0.2,0.1-0.4,0.1c-0.1,0-0.1,0-0.2,0
			c-0.1,0-0.1,0-0.2-0.1L71,11.3c0.2,0.1,0.5,0.1,0.7,0.1C71.9,11.4,72.2,11.3,72.4,11.2z"/>
		<path class="st0" d="M69.5,2h-1.1V1.8c0-0.1,0-0.2,0.1-0.2c0,0,0.1-0.1,0.3-0.1h0.6V0.9h-0.6c-0.3,0-0.6,0.1-0.7,0.2
			c-0.2,0.2-0.3,0.4-0.3,0.8v0.7h1.8V2z"/>
		<rect x="60.6" y="12.1" class="st0" width="0.8" height="0.8"/>
		<rect x="46.6" y="1.8" class="st0" width="0.8" height="0.8"/>
		<path class="st0" d="M65.8,8.4c0.3,0.2,0.7,0.4,1.1,0.5c0.4,0.1,0.9,0.2,1.3,0.2h0.2l0.3-0.6v0.8c0,0.4-0.1,0.7-0.4,0.9
			c-0.3,0.2-0.6,0.3-1.1,0.3c-0.3,0-0.5,0-0.7-0.1c-0.2,0-0.4-0.1-0.7-0.2L65.6,11c0.3,0.1,0.6,0.2,0.8,0.3c0.2,0.1,0.5,0.1,0.7,0.1
			c0.8,0,1.4-0.2,1.8-0.6c0.4-0.4,0.6-0.9,0.6-1.6V3.4h-1.3c-0.5,0-1,0.1-1.4,0.2C66.4,3.8,66,4,65.7,4.3c-0.3,0.3-0.5,0.6-0.7,0.9
			c-0.2,0.4-0.2,0.7-0.2,1.1c0,0.5,0.1,0.9,0.3,1.3C65.2,7.9,65.5,8.2,65.8,8.4z M65.8,5.5c0.1-0.2,0.3-0.5,0.5-0.6
			c0.2-0.2,0.5-0.3,0.7-0.4c0.3-0.1,0.5-0.1,0.8-0.1v0h1.3l-0.5,0.2v3.7h-0.8c-0.3,0-0.6,0-0.9-0.1c-0.3-0.1-0.5-0.2-0.7-0.4
			c-0.2-0.2-0.4-0.4-0.5-0.6c-0.1-0.2-0.2-0.5-0.2-0.8C65.6,6,65.7,5.7,65.8,5.5z"/>
		<path class="st0" d="M45.2,11.2h1.7v-0.6c0,0,0,0.1,0.1,0.1c0.1,0.2,0.3,0.3,0.5,0.4c0.2,0.1,0.5,0.1,0.8,0.1h15.2V3.4h-0.8v7
			h-0.9H48.2c-0.2,0-0.3,0-0.4-0.1c-0.1,0-0.2-0.1-0.2-0.2c-0.1-0.1-0.1-0.2-0.1-0.4c0-0.2,0-0.4,0-0.6V3.4h-2.3
			c-2.3,0-3.9,1.8-3.9,3.9v0C41.3,9.4,42.9,11.2,45.2,11.2z M42.2,7.3c0-1.7,1.2-3.1,3-3.1h1.9l-0.5,0.3v4.7c0,0.3,0,0.6,0.1,0.9
			c0,0.2,0.1,0.3,0.1,0.4l-1.6,0C43.5,10.5,42.2,9.1,42.2,7.3L42.2,7.3z"/>
		<polygon class="st0" points="37.2,9.2 37.5,10.1 32.2,3.4 31.4,3.4 31.4,11.2 32.3,11.2 32.3,5.3 31.8,4.2 37.3,11.2 38,11.2 
			38,3.4 37.2,3.4 		"/>
		<path class="st0" d="M49,23.7l4.8-4.6V16H41v3.6h6.6L50,18l-6.1,6.1l0.7,2.7h1.7c2.3,0,3.7,0.9,3.7,2.4v0.1c0,1.4-1.1,2.3-2.7,2.3
			c-1.9,0-3.3-0.8-4.6-2.3L39.9,32c1.6,1.9,4,3.3,7.4,3.3c4.2,0,6.8-2.6,6.8-6.2V29C54.1,25.5,51.6,24.1,49,23.7z"/>
		<path class="st0" d="M26,3.3c-2.4,0-4,1.9-4,4v0c0,2.2,1.6,4,4,4s4-1.9,4-4v0C30,5.2,28.4,3.3,26,3.3z M29,7.4
			c0,1.8-1.3,3.2-3.1,3.2c-1.8,0-3.1-1.4-3.1-3.2v0c0-1.8,1.3-3.2,3.1-3.2C27.8,4.1,29,5.6,29,7.4L29,7.4z"/>
		<path class="st1" d="M65.3,15.7c-5.9,0-10.1,4.4-10.1,9.8v0.1c0,5.4,4.2,9.7,10.1,9.7c5.9,0,10.1-4.4,10.1-9.8v-0.1
			C75.4,20,71.2,15.7,65.3,15.7z M71,25.5c0,3.2-2.3,5.9-5.7,5.9c-3.4,0-5.8-2.7-5.8-6v-0.1c0-3.2,2.3-5.9,5.7-5.9
			C68.6,19.5,71,22.2,71,25.5L71,25.5z"/>
		<rect x="19.6" y="3.4" class="st0" width="0.9" height="7.8"/>
		<path class="st0" d="M5.4,32.8l0.8-0.6l4.2-3.2c3.4-2.6,5-4.2,5-7.3v-0.1c0-3.5-2.6-5.8-6.5-5.8c-3.4,0-5.2,1.4-7.1,3.9L4.7,22
			c1.4-1.7,2.4-2.5,3.9-2.5c1.5,0,2.6,0.9,2.6,2.5c0,1.6-0.9,2.6-3.3,4.5l-6.3,5.2v3.3h14.1v-3.6H8.3L5.4,32.8z"/>
		<polygon class="st0" points="5.5,11.3 8.8,3.4 7.9,3.4 5.2,9.8 5.3,10.7 5.1,10.2 2.8,4.6 2.3,3.4 1.3,3.4 4.7,11.3 		"/>
		<rect x="10" y="3.4" class="st0" width="0.9" height="7.8"/>
		<path class="st0" d="M15.6,6.9c-1.7-0.4-2.1-0.8-2.1-1.5v0c0-0.7,0.6-1.3,1.7-1.3c0.8,0,1.5,0.3,2.3,0.8l0.5-0.7
			c-0.8-0.6-1.6-1-2.7-1c-1.5,0-2.6,0.9-2.6,2.1v0c0,1.3,0.8,1.9,2.6,2.3c1.6,0.3,2,0.8,2,1.5v0c0,0.8-0.7,1.3-1.7,1.3
			c-1.1,0-1.9-0.4-2.7-1.1l-0.5,0.6c0.9,0.8,2,1.2,3.2,1.2c1.6,0,2.7-0.9,2.7-2.2v0C18.1,7.9,17.3,7.3,15.6,6.9z"/>
	</g>
	<polygon class="st0" points="26.9,14.4 27.9,15.3 26.9,16.3 26,15.4 	"/>
	<polygon class="st0" points="29.1,15.4 30.1,16.3 31,15.3 30,14.4 	"/>
	<polygon class="st0" points="27.7,16.6 28.5,17.3 29.2,16.6 28.5,15.8 	"/>
	<polygon class="st0" points="30.5,17 31.2,17.7 32,17 31.2,16.2 	"/>
	<polygon class="st0" points="26.5,17.7 27.3,18.4 28,17.7 27.2,17 	"/>
	<polygon class="st0" points="29,17.8 29.8,18.5 30.5,17.8 29.7,17.1 	"/>
	<polygon class="st0" points="28,18.7 28.6,19.2 29.1,18.7 28.6,18.1 	"/>
	<polygon class="st0" points="30,19.1 30.6,19.6 31.1,19.1 30.5,18.5 	"/>
	<rect x="34.5" y="14.9" transform="matrix(0.9836 -0.1803 0.1803 0.9836 -2.2585 6.629)" class="st0" width="1.7" height="1.7"/>
	<rect x="32.3" y="15.6" transform="matrix(0.9836 -0.1801 0.1801 0.9836 -2.3941 6.213)" class="st0" width="1.3" height="1.3"/>
	<rect x="34.9" y="17.4" transform="matrix(0.9836 -0.1804 0.1804 0.9836 -2.6844 6.7095)" class="st0" width="1.3" height="1.3"/>
	<rect x="33.1" y="17.7" transform="matrix(0.9836 -0.1802 0.1802 0.9836 -2.7279 6.3475)" class="st0" width="1" height="1"/>
	<rect x="35" y="19.6" transform="matrix(0.9836 -0.1802 0.1802 0.9836 -3.0443 6.7371)" class="st0" width="1" height="1"/>
	<rect x="31.5" y="18.1" transform="matrix(0.9836 -0.1802 0.1802 0.9836 -2.8277 6.0786)" class="st0" width="1" height="1"/>
	<rect x="33.4" y="19.4" transform="matrix(0.9836 -0.1802 0.1802 0.9836 -3.0378 6.4345)" class="st0" width="1" height="1"/>
	<rect x="32" y="19.6" transform="matrix(0.9836 -0.1803 0.1803 0.9836 -3.0635 6.1715)" class="st0" width="0.7" height="0.7"/>
	<rect x="33.4" y="21.1" transform="matrix(0.9837 -0.1798 0.1798 0.9837 -3.3005 6.4257)" class="st0" width="0.7" height="0.7"/>
	<polygon class="st0" points="39.2,20.4 38.5,21.9 40,22.6 40.7,21.1 	"/>
	<polygon class="st0" points="37.1,19.7 36.5,20.9 37.7,21.5 38.3,20.3 	"/>
	<polygon class="st0" points="38.1,22.7 37.5,23.9 38.7,24.5 39.3,23.3 	"/>
	<polygon class="st0" points="36.5,21.8 36.1,22.7 37,23.2 37.4,22.2 	"/>
	<polygon class="st0" points="37,24.5 36.5,25.4 37.5,25.9 37.9,25 	"/>
	<polygon class="st0" points="35,21.2 34.6,22.2 35.5,22.6 36,21.7 	"/>
	<polygon class="st0" points="35.7,23.4 35.3,24.3 36.2,24.8 36.7,23.8 	"/>
	<polygon class="st0" points="34.6,22.7 34.3,23.4 35,23.7 35.3,23 	"/>
	<rect x="34.7" y="24.9" transform="matrix(0.4297 -0.903 0.903 0.4297 -2.7917 46.0252)" class="st0" width="0.7" height="0.7"/>
	<polygon class="st0" points="40,27.6 38.6,28.4 39.4,29.8 40.8,29 	"/>
	<polygon class="st0" points="38.7,25.8 37.5,26.4 38.2,27.6 39.4,26.9 	"/>
	<polygon class="st0" points="37.8,28.8 36.6,29.4 37.3,30.6 38.4,29.9 	"/>
	<polygon class="st0" points="37,27.1 36.1,27.6 36.6,28.5 37.5,28 	"/>
	<polygon class="st0" points="35.8,29.6 34.9,30.1 35.4,31 36.3,30.5 	"/>
	<polygon class="st0" points="36.2,25.8 35.2,26.3 35.7,27.2 36.7,26.7 	"/>
	<polygon class="st0" points="35.5,28 34.6,28.5 35.1,29.4 36,28.9 	"/>
	<polygon class="st0" points="34.9,26.8 34.3,27.1 34.7,27.8 35.3,27.4 	"/>
	<polygon class="st0" points="34,28.5 33.3,28.9 33.7,29.5 34.3,29.2 	"/>
	<rect x="34.7" y="33.8" transform="matrix(0.1226 -0.9925 0.9925 0.1226 -3.1309 65.6487)" class="st0" width="1.7" height="1.7"/>
	<rect x="35.1" y="31.6" transform="matrix(0.123 -0.9924 0.9924 0.123 -0.6318 63.7192)" class="st0" width="1.3" height="1.3"/>
	<rect x="32.6" y="33.4" transform="matrix(0.123 -0.9924 0.9924 0.123 -4.6792 62.8719)" class="st0" width="1.3" height="1.3"/>
	<rect x="33.2" y="31.7" transform="matrix(0.1227 -0.9924 0.9924 0.1227 -2.319 61.7315)" class="st0" width="1" height="1"/>
	<rect x="30.8" y="33" transform="matrix(0.1227 -0.9924 0.9924 0.1227 -5.7659 60.4549)" class="st0" width="1" height="1"/>
	<rect x="33.3" y="30.1" transform="matrix(0.123 -0.9924 0.9924 0.123 -0.7054 60.3949)" class="st0" width="1" height="1"/>
	<rect x="31.5" y="31.4" transform="matrix(0.123 -0.9924 0.9924 0.123 -3.6654 59.7751)" class="st0" width="1" height="1"/>
	<rect x="32.1" y="30.2" transform="matrix(0.1228 -0.9924 0.9924 0.1228 -1.8726 58.986)" class="st0" width="0.7" height="0.7"/>
	<rect x="30.2" y="31.1" transform="matrix(0.1227 -0.9924 0.9924 0.1227 -4.3386 57.935)" class="st0" width="0.7" height="0.7"/>
	<polygon class="st0" points="29.9,36.9 28.7,35.8 27.6,37 28.8,38.1 	"/>
	<polygon class="st0" points="29.7,13.7 28.5,12.5 27.4,13.8 28.6,14.9 	"/>
	<polygon class="st0" points="31.2,35.1 30.3,34.2 29.3,35.2 30.3,36.1 	"/>
	<polygon class="st0" points="28.1,35.1 27.1,34.2 26.2,35.2 27.2,36.1 	"/>
	<polygon class="st0" points="29.4,33.9 28.7,33.2 28,34 28.7,34.7 	"/>
	<polygon class="st0" points="26.7,33.5 25.9,32.8 25.2,33.6 26,34.3 	"/>
	<polygon class="st0" points="30.4,32.7 29.7,31.9 28.9,32.7 29.7,33.4 	"/>
	<polygon class="st0" points="28.1,32.7 27.4,32 26.7,32.7 27.4,33.5 	"/>
	<polygon class="st0" points="29.1,31.8 28.6,31.3 28.1,31.9 28.6,32.3 	"/>
	<polygon class="st0" points="27.1,31.5 26.6,31 26.1,31.5 26.6,32 	"/>
	<rect x="21" y="34" transform="matrix(0.9805 -0.1965 0.1965 0.9805 -6.4266 4.9744)" class="st0" width="1.7" height="1.7"/>
	<rect x="23.5" y="33.6" transform="matrix(0.9805 -0.1964 0.1964 0.9805 -6.2623 5.4141)" class="st0" width="1.3" height="1.3"/>
	<rect x="20.9" y="31.8" transform="matrix(0.9805 -0.1967 0.1967 0.9805 -5.9697 4.8834)" class="st0" width="1.3" height="1.3"/>
	<rect x="23.1" y="31.9" transform="matrix(0.9805 -0.1964 0.1964 0.9805 -5.9034 5.2625)" class="st0" width="1" height="1"/>
	<rect x="24.6" y="31.4" transform="matrix(0.9805 -0.1964 0.1964 0.9805 -5.7873 5.5529)" class="st0" width="1" height="1"/>
	<rect x="22.7" y="30.1" transform="matrix(0.9805 -0.1964 0.1964 0.9805 -5.5678 5.1593)" class="st0" width="1" height="1"/>
	<rect x="24.3" y="30.3" transform="matrix(0.9806 -0.1962 0.1962 0.9806 -5.5298 5.4442)" class="st0" width="0.7" height="0.7"/>
	<rect x="22.9" y="28.8" transform="matrix(0.9805 -0.1967 0.1967 0.9805 -5.2826 5.1544)" class="st0" width="0.7" height="0.7"/>
	<polygon class="st0" points="17.9,30.3 18.6,28.8 17.1,28.1 16.4,29.6 	"/>
	<polygon class="st0" points="20,30.9 20.6,29.7 19.4,29.2 18.8,30.4 	"/>
	<polygon class="st0" points="19,28 19.5,26.8 18.3,26.2 17.8,27.4 	"/>
	<rect x="19.8" y="27.6" transform="matrix(0.4149 -0.9098 0.9098 0.4149 -13.7332 34.9706)" class="st0" width="1" height="1"/>
	<polygon class="st0" points="21.8,31.2 22.3,30.3 21.3,29.8 20.9,30.8 	"/>
	<rect x="19.3" y="24.9" transform="matrix(0.4151 -0.9098 0.9098 0.4151 -11.5629 32.9)" class="st0" width="1" height="1"/>
	<rect x="21.3" y="28.2" transform="matrix(0.4151 -0.9098 0.9098 0.4151 -13.3455 36.6351)" class="st0" width="1" height="1"/>
	<rect x="20.5" y="26" transform="matrix(0.4154 -0.9096 0.9096 0.4154 -11.8325 34.677)" class="st0" width="1" height="1"/>
	<polygon class="st0" points="22.5,27.9 22.8,27.2 22.1,26.9 21.8,27.6 	"/>
	<polygon class="st0" points="22.2,25.9 22.5,25.2 21.8,24.9 21.5,25.6 	"/>
	<polygon class="st0" points="17,23.1 18.4,22.3 17.6,20.8 16.1,21.7 	"/>
	<polygon class="st0" points="18.3,24.9 19.5,24.2 18.8,23.1 17.6,23.7 	"/>
	<polygon class="st0" points="19.2,21.9 20.4,21.2 19.7,20.1 18.5,20.7 	"/>
	<polygon class="st0" points="20,23.5 20.9,23 20.4,22.1 19.5,22.6 	"/>
	<polygon class="st0" points="21.1,21 22,20.5 21.5,19.6 20.6,20.1 	"/>
	<polygon class="st0" points="20.9,24.8 21.8,24.3 21.3,23.4 20.4,23.9 	"/>
	<polygon class="st0" points="21.5,22.7 22.4,22.1 21.9,21.2 21,21.8 	"/>
	<polygon class="st0" points="22.1,23.8 22.7,23.5 22.3,22.8 21.7,23.2 	"/>
	<polygon class="st0" points="23,22 23.6,21.7 23.3,21.1 22.6,21.4 	"/>
	<rect x="20.5" y="15.2" transform="matrix(0.1063 -0.9943 0.9943 0.1063 3.1161 35.5133)" class="st0" width="1.7" height="1.7"/>
	<rect x="20.5" y="17.7" transform="matrix(0.1064 -0.9943 0.9943 0.1064 0.6307 37.5087)" class="st0" width="1.3" height="1.3"/>
	<rect x="23" y="15.8" transform="matrix(0.1064 -0.9943 0.9943 0.1064 4.736 38.2622)" class="st0" width="1.3" height="1.3"/>
	<rect x="22.6" y="17.9" transform="matrix(0.1065 -0.9943 0.9943 0.1065 2.3917 39.4828)" class="st0" width="1" height="1"/>
	<rect x="25.1" y="16.5" transform="matrix(0.1061 -0.9944 0.9944 0.1061 5.9085 40.6911)" class="st0" width="1" height="1"/>
	<rect x="22.6" y="19.5" transform="matrix(0.1065 -0.9943 0.9943 0.1065 0.7863 40.8596)" class="st0" width="1" height="1"/>
	<rect x="24.4" y="18.1" transform="matrix(0.1065 -0.9943 0.9943 0.1065 3.7888 41.4107)" class="st0" width="1" height="1"/>
	<rect x="24.2" y="19.6" transform="matrix(0.1064 -0.9943 0.9943 0.1064 2.0075 42.2609)" class="st0" width="0.7" height="0.7"/>
	<rect x="26" y="18.7" transform="matrix(0.1058 -0.9944 0.9944 0.1058 4.539 43.2755)" class="st0" width="0.7" height="0.7"/>
	<path class="st0" d="M33.8,26.3c-0.1-0.1-0.3-0.2-0.7-0.3c-0.4-0.1-1.1-0.2-1.8-0.1c-0.2,0-0.5,0.1-0.8,0.2c0,0-0.1,0-0.1,0
		c-0.1,0.1-0.3,0.1-0.4,0.2c-0.1,0.1-0.2,0.1-0.4,0.2c-0.3,0.2-0.5,0.3-0.8,0.5c-0.3-1.8-0.1-3.4-0.1-4.2c0,0,0,0,0,0
		c0.6,0.4,0.5,1.5,0.3,1.8c0,0,0,0,0,0c0.8-0.9,0.4-1.9,0.2-2.2c0,0,0,0,0,0c0.1,0.1,0.2,0.2,0.3,0.3c0.2,0.3,0.3,0.6,0.4,0.9
		c0,0.2,0,0.3,0,0.4c0,0,0,0.1,0,0.1c0,0,0,0,0,0c0,0,0,0,0,0c0.2-0.4,0.3-1,0-1.6c-0.1-0.2-0.2-0.3-0.4-0.5c0,0-0.1-0.1-0.1-0.1
		c0,0,0,0,0,0c0,0,0.1,0,0.1,0c0.1,0,0.3,0.1,0.4,0.2c0.2,0.2,0.4,0.4,0.5,0.7c0.1,0.2,0.1,0.4,0.1,0.6c0,0,0,0,0,0
		c0.1-0.5,0.1-0.9-0.1-1.2c-0.1-0.2-0.3-0.4-0.5-0.5c-0.1-0.1-0.2-0.1-0.4-0.2c-0.1,0-0.1,0-0.2,0c0,0,0,0,0,0c0.1,0,0.1,0,0.2,0
		c0.1,0,0.2,0,0.4,0c0.2,0,0.4,0.1,0.5,0.2c0.2,0.1,0.3,0.3,0.3,0.4c0,0,0,0,0,0c0-0.3-0.2-0.5-0.3-0.7c-0.1-0.1-0.3-0.2-0.5-0.3
		c-0.1,0-0.2,0-0.4-0.1c-0.2,0-0.3,0-0.4,0.1c0,0,0,0,0,0c0.1-0.2,0.3-0.3,0.4-0.3c0.1,0,0.2,0,0.4,0c0.1,0,0.2,0,0.3,0.1
		c0,0,0,0,0,0c-0.1-0.1-0.2-0.2-0.3-0.2c-0.1-0.1-0.2-0.1-0.4-0.1c-0.3,0-0.6,0.1-0.9,0.4c0,0,0,0,0,0c0-0.1-0.1-0.2-0.1-0.2
		c-0.1-0.2-0.2-0.4-0.2-0.6c0,0,0,0,0,0c0,0.2-0.1,0.4-0.2,0.6c0,0.1-0.1,0.2-0.1,0.2c0,0,0,0,0,0c-0.4-0.6-1.1-0.6-1.5-0.1
		c0,0,0,0,0,0c0.3-0.1,0.8-0.1,1.1,0.3c0,0,0,0,0,0c-0.4-0.2-1.1-0.1-1.4,0.3c-0.1,0.1-0.2,0.3-0.2,0.6c0,0,0,0,0,0
		c0-0.1,0.1-0.2,0.2-0.3c0.2-0.2,0.6-0.4,1.1-0.3c0,0,0,0,0,0c-0.3,0-0.9,0.3-1.1,0.9c-0.1,0.3-0.1,0.6,0,1c0,0,0,0,0,0c0,0,0,0,0,0
		c0-0.5,0.3-1.3,1.1-1.5c0,0,0,0,0,0c-0.9,0.8-0.8,1.7-0.5,2.3c0,0,0,0,0,0c0-0.4-0.1-1.2,0.6-1.7c0,0,0,0,0,0
		c-0.2,0.3-0.5,1.3,0.2,2.2c0,0,0,0,0,0c-0.1-0.3-0.3-1.4,0.3-1.8c0,0,0,0,0,0c0.1,0.8,0.2,2.4-0.1,4.2c-0.5-0.4-1-0.7-1.6-0.9
		c-0.1,0-0.1,0-0.2-0.1c-0.5-0.2-1-0.2-1.5-0.2c-0.7,0-1.2,0.2-1.5,0.4c-0.1,0-0.1,0.1-0.1,0.1c0,0,0,0,0,0c0,0,0.1,0,0.1,0
		c0.5-0.2,1-0.2,1.5-0.1c0.5,0,1,0.2,1.5,0.4c0.6,0.3,1.2,0.7,1.8,1.1c-0.7,0.6-1.4,1.3-1.8,1.5c0,0,0,0-0.1,0
		c-0.1-0.1-0.3-0.2-0.4-0.2c-0.2,0-0.3,0.2-0.3,0.3c0,0.1,0,0.3,0.1,0.4c0.2,0.2,0.4,0.2,0.7,0.1c0.5-0.2,1.2-0.9,1.9-1.6
		c0.1-0.1,0.1-0.1,0.2-0.2c0.1,0.1,0.1,0.1,0.2,0.2c0.4,0.3,0.7,0.6,1,0.9c0.1,0.1,0.2,0.2,0.4,0.3c0.2,0.1,0.3,0.3,0.5,0.3
		c0.3,0.2,0.6,0.2,0.8,0c0,0,0,0,0,0c0.1-0.1,0.1-0.2,0.1-0.4c0-0.1-0.1-0.1-0.1-0.2c-0.1-0.1-0.1-0.1-0.2-0.1c-0.2,0-0.3,0-0.4,0.2
		c-0.1,0-0.1-0.1-0.2-0.1c-0.1-0.1-0.3-0.2-0.5-0.4c-0.1-0.1-0.2-0.2-0.4-0.3c-0.2-0.2-0.5-0.5-0.8-0.7c0.3-0.2,0.5-0.4,0.8-0.6
		c0.1-0.1,0.2-0.2,0.4-0.2c0.2-0.1,0.3-0.2,0.5-0.3c0.3-0.1,0.5-0.2,0.8-0.3c0.6-0.2,1.2-0.2,1.8-0.1C33.3,26.3,33.5,26.3,33.8,26.3
		C33.8,26.4,33.8,26.4,33.8,26.3"/>
	<g>
		<rect x="5.4" y="44.3" class="st0" width="0.5" height="0.5"/>
		<path class="st0" d="M39,43.7v-3.3h-0.5v2.8h-1.8v-2.8h-0.5v2.8h-1.9v-2.8h-0.8c-0.3,0-0.6,0-0.8,0.1c-0.2,0.1-0.5,0.2-0.6,0.3
			c-0.2,0.1-0.3,0.3-0.4,0.5c-0.1,0.2-0.1,0.4-0.1,0.7c0,0.3,0.1,0.5,0.2,0.7c0.1,0.2,0.3,0.4,0.4,0.5c0.2,0.1,0.4,0.2,0.6,0.3
			c0.2,0.1,0.5,0.1,0.8,0.1H39z M32.8,43.2c-0.2-0.1-0.3-0.1-0.4-0.2c-0.1-0.1-0.2-0.2-0.3-0.4C32,42.4,32,42.3,32,42.1
			c0-0.2,0-0.3,0.1-0.5c0.1-0.1,0.2-0.3,0.3-0.4c0.1-0.1,0.3-0.2,0.4-0.2c0.2-0.1,0.3-0.1,0.5-0.1h0.5v2.3h-0.5
			C33.1,43.3,32.9,43.2,32.8,43.2z"/>
		<rect x="28.6" y="39.4" class="st0" width="0.5" height="4.4"/>
		<rect x="33.7" y="39.4" class="st0" width="0.5" height="0.5"/>
		<rect x="38.5" y="44.3" class="st0" width="0.5" height="0.5"/>
		<rect x="6.2" y="44.3" class="st0" width="0.5" height="0.5"/>
		<path class="st0" d="M26.7,43.3h-0.8c-0.3,0-0.5,0-0.7-0.1c-0.2-0.1-0.3-0.2-0.4-0.4c0-0.1,0-0.3,0-0.5v-1.6h-0.5v1.6
			c0,0.3-0.1,0.5-0.2,0.7c-0.1,0.2-0.4,0.3-0.7,0.3c-0.1,0-0.3,0-0.4-0.1c-0.1,0-0.2-0.1-0.3-0.2c-0.1-0.1-0.2-0.2-0.2-0.3
			c0-0.1-0.1-0.2-0.1-0.3v-1.7H22v1.7c0,0.1,0,0.3-0.1,0.4c0,0.1-0.1,0.2-0.2,0.3c-0.1,0.1-0.2,0.1-0.3,0.1c-0.1,0-0.2,0-0.3,0h-0.9
			v-2.5h-0.5v2.5h-2.6l0.9-2c-0.1-0.1-0.3-0.2-0.4-0.3c-0.1-0.1-0.3-0.2-0.4-0.3c-0.2-0.1-0.3-0.1-0.5-0.2c-0.2,0-0.3-0.1-0.5-0.1
			c-0.2,0-0.3,0-0.5,0.1c-0.2,0-0.3,0.1-0.5,0.2c-0.2,0.1-0.3,0.2-0.4,0.3c-0.1,0.1-0.3,0.2-0.4,0.3l0.9,2h-1.7v-2.8h-0.8
			c-0.3,0-0.6,0-0.8,0.1c-0.2,0.1-0.5,0.2-0.6,0.3c-0.2,0.1-0.3,0.3-0.4,0.5c-0.1,0.2-0.1,0.4-0.1,0.7c0,0.3,0.1,0.5,0.2,0.7
			c0.1,0.2,0.3,0.4,0.4,0.5c0.2,0.1,0.4,0.2,0.6,0.3c0.2,0.1,0.5,0.1,0.8,0.1h0.3v0.1c0,0.3-0.1,0.4-0.2,0.5s-0.4,0.2-0.6,0.2
			c-0.1,0-0.3,0-0.4,0c-0.1,0-0.3-0.1-0.4-0.1l-0.2,0.5c0.2,0.1,0.4,0.1,0.5,0.2c0.1,0,0.3,0.1,0.4,0.1c0.5,0,0.8-0.1,1-0.3
			c0.2-0.2,0.3-0.5,0.3-0.9v-0.1h7.6c0.2,0,0.4-0.1,0.6-0.2c0.2-0.1,0.3-0.2,0.4-0.4c0.1,0.2,0.3,0.3,0.5,0.5
			c0.2,0.1,0.4,0.2,0.7,0.2c0.3,0,0.5-0.1,0.7-0.2c0.2-0.1,0.4-0.3,0.5-0.5c0,0.1,0.1,0.1,0.1,0.2c0.1,0.1,0.1,0.1,0.2,0.2
			c0.1,0.1,0.2,0.1,0.3,0.1c0.1,0,0.2,0,0.3,0v0h1.4v-4.4h-0.5V43.3z M13.2,43.3h-0.5c-0.2,0-0.4,0-0.5-0.1
			c-0.2-0.1-0.3-0.1-0.4-0.2c-0.1-0.1-0.2-0.2-0.3-0.4c-0.1-0.1-0.1-0.3-0.1-0.5c0-0.2,0-0.3,0.1-0.5c0.1-0.1,0.2-0.3,0.3-0.4
			c0.1-0.1,0.3-0.2,0.4-0.2c0.2-0.1,0.3-0.1,0.5-0.1h0.5V43.3z M15.8,43.3l-0.8-1.9c0.2-0.2,0.4-0.3,0.6-0.3
			c0.2-0.1,0.4-0.1,0.6-0.1c0.2,0,0.4,0,0.7,0.1c0.2,0.1,0.4,0.2,0.5,0.3l-0.8,1.9H15.8z"/>
		<rect x="3.7" y="39.4" class="st0" width="0.5" height="0.5"/>
		<rect x="52.9" y="39.4" class="st0" width="0.5" height="0.5"/>
		<rect x="48.6" y="39.4" class="st0" width="0.5" height="4.4"/>
		<rect x="32.9" y="39.4" class="st0" width="0.5" height="0.5"/>
		<path class="st0" d="M10.1,41.8c0-0.2,0-0.4-0.1-0.5C10,41.1,9.9,41,9.8,40.9c-0.1-0.1-0.3-0.2-0.4-0.3c-0.2-0.1-0.4-0.1-0.6-0.1
			H8.4v0.5h0.4c0.1,0,0.2,0,0.3,0.1c0.1,0.1,0.2,0.1,0.3,0.2c0.1,0.1,0.1,0.2,0.1,0.3c0,0.1,0,0.2,0,0.4v1.4H7.3v0.5h2.8V41.8z"/>
		<rect x="74.3" y="39.4" class="st0" width="0.5" height="4.4"/>
		<rect x="53.7" y="39.4" class="st0" width="0.5" height="0.5"/>
		<path class="st0" d="M72.9,39.4h-0.5v3.9h-1.7c0.1-0.2,0.2-0.5,0.2-0.7c0-0.3,0-0.5-0.1-0.7c-0.1-0.2-0.2-0.4-0.4-0.6
			c-0.2-0.2-0.3-0.3-0.6-0.4c-0.2-0.1-0.5-0.1-0.7-0.1c-0.2,0-0.5,0-0.7,0.1c-0.2,0.1-0.4,0.2-0.5,0.4c-0.2,0.2-0.3,0.3-0.4,0.6
			c-0.1,0.2-0.1,0.4-0.1,0.7c0,0.1,0,0.3,0,0.4c0,0.1,0.1,0.2,0.1,0.3H66c0.1-0.2,0.2-0.5,0.2-0.7c0-0.3,0-0.5-0.1-0.7
			c-0.1-0.2-0.2-0.4-0.4-0.6c-0.2-0.2-0.3-0.3-0.6-0.4c-0.2-0.1-0.5-0.1-0.7-0.1c-0.2,0-0.5,0-0.7,0.1c-0.2,0.1-0.4,0.2-0.5,0.4
			c-0.2,0.2-0.3,0.3-0.4,0.6c-0.1,0.2-0.1,0.4-0.1,0.7c0,0.1,0,0.3,0,0.4c0,0.1,0.1,0.2,0.1,0.3h-1.5v-3.9h-0.5v3.9h-1.5v-0.7
			c0-0.2,0-0.4-0.1-0.5c0-0.2-0.1-0.3-0.2-0.4c-0.1-0.1-0.3-0.2-0.4-0.3c-0.2-0.1-0.4-0.1-0.6-0.1h-2.2l0.9-1.7h-0.5l-0.9,1.7
			c0,0.1,0,0.2,0.1,0.3c0,0.1,0.1,0.1,0.1,0.2h2.5c0.2,0,0.3,0,0.4,0.1c0.1,0,0.2,0.1,0.3,0.2c0.1,0.1,0.1,0.2,0.1,0.3
			c0,0.1,0,0.2,0,0.4v0.7h-4.5v-2.8h-0.8c-0.3,0-0.6,0-0.8,0.1c-0.2,0.1-0.5,0.2-0.6,0.3c-0.2,0.1-0.3,0.3-0.4,0.5
			c-0.1,0.2-0.1,0.4-0.1,0.7c0,0.3,0.1,0.5,0.2,0.7c0.1,0.2,0.3,0.4,0.4,0.5c0.2,0.1,0.4,0.2,0.6,0.3c0.2,0.1,0.5,0.1,0.8,0.1h9.6
			c0.2,0.2,0.3,0.3,0.6,0.4c0.2,0.1,0.5,0.1,0.7,0.1c0.3,0,0.5,0,0.7-0.1c0.2-0.1,0.4-0.2,0.6-0.4h2.1c0.2,0.2,0.3,0.3,0.6,0.4
			c0.2,0.1,0.5,0.1,0.7,0.1c0.3,0,0.5,0,0.7-0.1c0.2-0.1,0.4-0.2,0.6-0.4h2.5V39.4z M53.8,43.3h-0.5c-0.2,0-0.4,0-0.5-0.1
			c-0.2-0.1-0.3-0.1-0.4-0.2c-0.1-0.1-0.2-0.2-0.3-0.4C52,42.4,52,42.3,52,42.1c0-0.2,0-0.3,0.1-0.5c0.1-0.1,0.2-0.3,0.3-0.4
			c0.1-0.1,0.3-0.2,0.4-0.2c0.2-0.1,0.3-0.1,0.5-0.1h0.5V43.3z M65.6,43c-0.1,0.2-0.2,0.3-0.3,0.4c-0.1,0.1-0.3,0.2-0.4,0.3
			c-0.2,0.1-0.3,0.1-0.5,0.1c-0.2,0-0.3,0-0.5-0.1c-0.2-0.1-0.3-0.2-0.4-0.3c-0.1-0.1-0.2-0.2-0.3-0.4c-0.1-0.2-0.1-0.3-0.1-0.5
			c0-0.2,0-0.3,0.1-0.5c0.1-0.2,0.1-0.3,0.3-0.4c0.1-0.1,0.2-0.2,0.4-0.3c0.2-0.1,0.3-0.1,0.5-0.1c0.2,0,0.4,0,0.5,0.1
			c0.2,0.1,0.3,0.2,0.4,0.3c0.1,0.1,0.2,0.2,0.3,0.4c0.1,0.2,0.1,0.3,0.1,0.5C65.7,42.7,65.6,42.9,65.6,43z M70.3,43
			c-0.1,0.2-0.2,0.3-0.3,0.4c-0.1,0.1-0.3,0.2-0.4,0.3c-0.2,0.1-0.3,0.1-0.5,0.1c-0.2,0-0.3,0-0.5-0.1c-0.2-0.1-0.3-0.2-0.4-0.3
			C68.1,43.3,68,43.2,68,43c-0.1-0.2-0.1-0.3-0.1-0.5c0-0.2,0-0.3,0.1-0.5c0.1-0.2,0.1-0.3,0.3-0.4c0.1-0.1,0.2-0.2,0.4-0.3
			c0.2-0.1,0.3-0.1,0.5-0.1c0.2,0,0.4,0,0.5,0.1c0.2,0.1,0.3,0.2,0.4,0.3c0.1,0.1,0.2,0.2,0.3,0.4c0.1,0.2,0.1,0.3,0.1,0.5
			C70.4,42.7,70.4,42.9,70.3,43z"/>
		<path class="st0" d="M2.7,43.6c0.2,0.1,0.5,0.1,0.8,0.1h3.2v-3.3H6.2v2.8H4.2v-2.8H3.5c-0.3,0-0.6,0-0.8,0.1
			c-0.2,0.1-0.5,0.2-0.6,0.3c-0.2,0.1-0.3,0.3-0.4,0.5c-0.1,0.2-0.1,0.4-0.1,0.7c0,0.3,0.1,0.5,0.2,0.7c0.1,0.2,0.3,0.4,0.4,0.5
			C2.2,43.5,2.5,43.6,2.7,43.6z M1.9,42.1c0-0.2,0-0.3,0.1-0.5c0.1-0.1,0.2-0.3,0.3-0.4c0.1-0.1,0.3-0.2,0.4-0.2
			c0.2-0.1,0.3-0.1,0.5-0.1h0.5v2.3H3.3c-0.2,0-0.4,0-0.5-0.1c-0.2-0.1-0.3-0.1-0.4-0.2c-0.1-0.1-0.2-0.2-0.3-0.4
			C2,42.4,1.9,42.3,1.9,42.1z"/>
		<rect x="36.7" y="44.3" class="st0" width="0.5" height="0.5"/>
		<rect x="35.9" y="44.3" class="st0" width="0.5" height="0.5"/>
		<path class="st0" d="M40.9,44.4c0-0.2,0-0.3,0-0.5v-0.1h6.3v-4.4h-0.5v3.9h-2.1l0.9-2c-0.1-0.1-0.3-0.2-0.4-0.3
			c-0.1-0.1-0.3-0.2-0.4-0.3c-0.2-0.1-0.3-0.1-0.5-0.2c-0.2,0-0.3-0.1-0.5-0.1c-0.2,0-0.3,0-0.5,0.1c-0.2,0-0.3,0.1-0.5,0.2
			c-0.2,0.1-0.3,0.2-0.4,0.3c-0.1,0.1-0.3,0.2-0.4,0.3l0.9,2h-1.8v-2.8h-0.5v3.4c0,0.1,0,0.3,0,0.3c0,0.1,0,0.2-0.1,0.2
			c0,0.1-0.1,0.1-0.1,0.1c-0.1,0-0.1,0-0.2,0c0,0-0.1,0-0.1,0c0,0-0.1,0-0.1,0L39.6,45c0.1,0,0.3,0.1,0.4,0.1c0.2,0,0.3,0,0.4-0.1
			c0.1-0.1,0.2-0.1,0.3-0.2C40.8,44.6,40.8,44.5,40.9,44.4z M42.5,41.4c0.2-0.2,0.4-0.3,0.6-0.3c0.2-0.1,0.4-0.1,0.6-0.1
			c0.2,0,0.4,0,0.7,0.1c0.2,0.1,0.4,0.2,0.5,0.3l-0.8,1.9h-0.9L42.5,41.4z"/>
		<rect x="2.9" y="39.4" class="st0" width="0.5" height="0.5"/>
		<polygon class="st0" points="4.9,46.9 4.2,46.9 2.5,48.7 2.5,46.9 1.9,46.9 1.9,50.4 2.5,50.4 2.5,49.4 3.1,48.8 4.3,50.4 5,50.4 
			3.5,48.4 		"/>
		<rect x="5.6" y="46.9" class="st0" width="0.6" height="3.5"/>
		<polygon class="st0" points="9.5,49.3 7.7,46.9 7.1,46.9 7.1,50.4 7.7,50.4 7.7,47.9 9.6,50.4 10.1,50.4 10.1,46.9 9.5,46.9 		"/>
		<path class="st0" d="M12.7,49h0.9v0.6c-0.2,0.2-0.5,0.3-0.8,0.3c-0.7,0-1.2-0.5-1.2-1.2v0c0-0.7,0.5-1.2,1.1-1.2
			c0.4,0,0.7,0.1,1,0.4l0.4-0.5c-0.4-0.3-0.7-0.5-1.3-0.5c-1,0-1.8,0.8-1.8,1.8v0c0,1,0.7,1.8,1.8,1.8c0.6,0,1.1-0.2,1.4-0.5v-1.5
			h-1.5V49z"/>
		<path class="st0" d="M16.3,46.9H15v3.5h1.3c1.1,0,1.8-0.8,1.8-1.7v0C18.1,47.7,17.4,46.9,16.3,46.9z M17.5,48.7
			c0,0.7-0.5,1.2-1.2,1.2h-0.7v-2.4h0.7C17,47.5,17.5,48,17.5,48.7L17.5,48.7z"/>
		<path class="st0" d="M20.5,46.9c-1.1,0-1.8,0.8-1.8,1.8v0c0,1,0.7,1.8,1.8,1.8c1.1,0,1.8-0.8,1.8-1.8v0
			C22.3,47.7,21.6,46.9,20.5,46.9z M21.7,48.7c0,0.7-0.5,1.2-1.2,1.2c-0.7,0-1.2-0.6-1.2-1.2v0c0-0.7,0.5-1.2,1.2-1.2
			C21.2,47.4,21.7,48,21.7,48.7L21.7,48.7z"/>
		<polygon class="st0" points="24.8,48.6 23.7,46.9 23.1,46.9 23.1,50.4 23.7,50.4 23.7,47.9 24.8,49.5 24.8,49.5 25.9,47.9 
			25.9,50.4 26.5,50.4 26.5,46.9 25.9,46.9 		"/>
		<path class="st0" d="M30.5,46.9c-1.1,0-1.8,0.8-1.8,1.8v0c0,1,0.7,1.8,1.8,1.8c1.1,0,1.8-0.8,1.8-1.8v0
			C32.4,47.7,31.6,46.9,30.5,46.9z M31.7,48.7c0,0.7-0.5,1.2-1.2,1.2c-0.7,0-1.2-0.6-1.2-1.2v0c0-0.7,0.5-1.2,1.2-1.2
			C31.2,47.4,31.7,48,31.7,48.7L31.7,48.7z"/>
		<polygon class="st0" points="33.1,50.4 33.7,50.4 33.7,49 35.5,49 35.5,48.4 33.7,48.4 33.7,47.5 35.7,47.5 35.7,46.9 33.1,46.9 
					"/>
		<path class="st0" d="M39.2,48.4c-0.7-0.2-0.8-0.3-0.8-0.5v0c0-0.2,0.2-0.4,0.6-0.4c0.3,0,0.6,0.1,0.9,0.4l0.3-0.5
			c-0.4-0.3-0.8-0.4-1.3-0.4c-0.7,0-1.2,0.4-1.2,1v0c0,0.6,0.4,0.9,1.2,1c0.6,0.1,0.8,0.3,0.8,0.5v0c0,0.3-0.2,0.4-0.6,0.4
			c-0.4,0-0.8-0.2-1.1-0.5l-0.4,0.4c0.4,0.4,0.9,0.6,1.4,0.6c0.7,0,1.2-0.4,1.2-1v0C40.3,48.8,39.9,48.6,39.2,48.4z"/>
		<path class="st0" d="M42.2,46.9l-1.5,3.5h0.6l0.4-0.8h1.6l0.4,0.8h0.6l-1.5-3.5H42.2z M41.9,49l0.6-1.4l0.6,1.4H41.9z"/>
		<path class="st0" d="M47,48.9c0,0.6-0.3,1-0.9,1c-0.5,0-0.9-0.3-0.9-1v-2h-0.6v2c0,1,0.6,1.5,1.5,1.5c0.9,0,1.5-0.5,1.5-1.6v-2H47
			V48.9z"/>
		<path class="st0" d="M49.8,46.9h-1.3v3.5h1.3c1.1,0,1.8-0.8,1.8-1.7v0C51.6,47.7,50.9,46.9,49.8,46.9z M51,48.7
			c0,0.7-0.5,1.2-1.2,1.2h-0.7v-2.4h0.7C50.5,47.5,51,48,51,48.7L51,48.7z"/>
		<rect x="52.4" y="46.9" class="st0" width="0.6" height="3.5"/>
		<path class="st0" d="M56.7,46.9l-1.5,3.5h0.6l0.4-0.8h1.6l0.4,0.8h0.6l-1.5-3.5H56.7z M56.3,49l0.6-1.4l0.6,1.4H56.3z"/>
		<path class="st0" d="M62.2,48L62.2,48c0-0.3-0.1-0.6-0.3-0.8c-0.2-0.2-0.6-0.3-1-0.3h-1.5v3.5h0.6v-1.2h0.8h0l0.9,1.2h0.7
			l-0.9-1.3C61.8,48.9,62.2,48.6,62.2,48z M59.9,48.6v-1.2h0.9c0.5,0,0.7,0.2,0.7,0.6v0c0,0.4-0.3,0.6-0.7,0.6H59.9z"/>
		<path class="st0" d="M64.3,46.9l-1.5,3.5h0.6l0.4-0.8h1.6l0.4,0.8h0.6l-1.5-3.5H64.3z M63.9,49l0.6-1.4l0.6,1.4H63.9z"/>
		<path class="st0" d="M69.1,48.6c0.3-0.1,0.5-0.4,0.5-0.8v0c0-0.2-0.1-0.4-0.2-0.6c-0.2-0.2-0.5-0.3-0.9-0.3h-1.6v3.5h1.6
			c0.8,0,1.3-0.3,1.3-1v0C69.8,49,69.5,48.7,69.1,48.6z M67.5,47.5h0.9c0.4,0,0.6,0.2,0.6,0.4v0c0,0.3-0.3,0.5-0.7,0.5h-0.8V47.5z
			 M69.2,49.4c0,0.3-0.3,0.5-0.7,0.5h-1v-1h1C69,48.9,69.2,49.1,69.2,49.4L69.2,49.4z"/>
		<rect x="70.6" y="46.9" class="st0" width="0.6" height="3.5"/>
		<path class="st0" d="M73.9,46.9h-0.6l-1.5,3.5h0.6l0.4-0.8h1.6l0.4,0.8h0.6L73.9,46.9z M73,49l0.6-1.4l0.6,1.4H73z"/>
	</g>
</g>
</svg>
